<svg xmlns="http://www.w3.org/2000/svg" width="206.525" height="209.776" viewBox="0 0 206.525 209.776">
    <defs>
        <style>
            .prefix__cls-2{fill:#c9f0ff}.prefix__cls-3{fill:#9ae7fd}.prefix__cls-7{fill:#ea4444}.prefix__cls-8{fill:#d93131}.prefix__cls-9{fill:#5ee2c5}.prefix__cls-10{fill:#00d3b4}.prefix__cls-11{fill:#509e49}.prefix__cls-12{fill:#44873e}.prefix__cls-13{fill:#64dcfc}
        </style>
    </defs>
    <g id="prefix__architecture-and-city" transform="translate(-.001 .001)">
        <path id="prefix__Path_269" d="M225.264 241.531H103.309V85.757L163.3 54.046a2.1 2.1 0 0 1 1.967 0l59.993 31.711zm0 0" data-name="Path 269" transform="translate(-60.981 -31.759)" style="fill:#fab2b2"/>
        <path id="prefix__Path_270" d="M167.234 339.012h34.743v70.873h-34.743zm0 0" class="prefix__cls-2" data-name="Path 270" transform="translate(-98.715 -200.114)"/>
        <path id="prefix__Path_271" d="M252.031 339.012h34.743v70.873h-34.743zm0 0" class="prefix__cls-2" data-name="Path 271" transform="translate(-148.769 -200.114)"/>
        <path id="prefix__Path_272" d="M317.422 339.012h7.951v70.873h-7.951zm0 0" class="prefix__cls-3" data-name="Path 272" transform="translate(-187.368 -200.114)"/>
        <path id="prefix__Path_273" d="M232.629 339.012h7.949v70.873h-7.949zm0 0" class="prefix__cls-3" data-name="Path 273" transform="translate(-137.316 -200.114)"/>
        <path id="prefix__Path_274" d="M232.839 336.409H159.5a2.1 2.1 0 0 1-2.1-2.1v-7.599a2.105 2.105 0 0 1 2.1-2.1h73.336a2.105 2.105 0 0 1 2.1 2.1v7.59a2.1 2.1 0 0 1-2.097 2.109zm0 0" data-name="Path 274" transform="translate(-92.909 -191.61)" style="fill:#babac0"/>
        <path id="prefix__Path_275" d="M332.642 326.714v7.594a2.105 2.105 0 0 1-2.1 2.1h-7.631a2.105 2.105 0 0 0 2.1-2.1v-7.594a2.1 2.1 0 0 0-2.1-2.1h7.631a2.1 2.1 0 0 1 2.1 2.1zm0 0" data-name="Path 275" transform="translate(-190.606 -191.612)" style="fill:#a1a1a7"/>
        <path id="prefix__Path_276" d="M298.426 85.755v155.776h-9.209V92.68a2.1 2.1 0 0 0-1.122-1.86L229.224 59.7a2.122 2.122 0 0 0-1.97 0l9.211-5.653a2.1 2.1 0 0 1 1.97 0zm0 0" data-name="Path 276" transform="translate(-134.143 -31.757)" style="fill:#f89696"/>
        <path id="prefix__Path_277" d="M144.6.266L76.5 37.889A9.33 9.33 0 0 0 85.384 54.3l59.246-31.46a2.1 2.1 0 0 1 1.973 0l59.244 31.46a9.33 9.33 0 0 0 8.887-16.406L146.634.266a2.1 2.1 0 0 0-2.036 0zm0 0" class="prefix__cls-7" data-name="Path 277" transform="translate(-42.31 -.003)"/>
        <path id="prefix__Path_278" d="M316.7 46.052a9.216 9.216 0 0 1-3.819 7.527 9.9 9.9 0 0 0 .211-2.055 9.822 9.822 0 0 0-5.072-8.591L236.38 3.355c-.042-.021-.085-.046-.126-.064l5.488-3.03a2.105 2.105 0 0 1 2.037 0l68.1 37.625a9.326 9.326 0 0 1 4.819 8.166zm0 0" class="prefix__cls-8" data-name="Path 278" transform="translate(-139.456)"/>
        <path id="prefix__Path_279" d="M241.406 181.761h-48.238v-46.693a24.119 24.119 0 0 1 48.238 0zm0 0" class="prefix__cls-2" data-name="Path 279" transform="translate(-114.023 -65.492)"/>
        <path id="prefix__Path_280" d="M269.281 135.068v46.692h-9.532v-46.692a24.135 24.135 0 0 0-19.354-23.647 24.356 24.356 0 0 1 4.769-.472 24.117 24.117 0 0 1 24.117 24.119zm0 0" class="prefix__cls-3" data-name="Path 280" transform="translate(-141.9 -65.492)"/>
        <path id="prefix__Path_281" d="M163.73 233.876a6.609 6.609 0 1 0-.714-13.178 6.609 6.609 0 1 0-11.72.006 6.825 6.825 0 0 0-.751-.045 6.609 6.609 0 0 0 0 13.218h13.185zm0 0" class="prefix__cls-9" data-name="Path 281" transform="translate(-84.963 -124.576)"/>
        <path id="prefix__Path_282" d="M315.482 233.876a6.609 6.609 0 1 0-.714-13.178 6.609 6.609 0 1 0-11.72.006 6.824 6.824 0 0 0-.751-.045 6.609 6.609 0 1 0 0 13.218h13.185zm0 0" class="prefix__cls-9" data-name="Path 282" transform="translate(-174.539 -124.576)"/>
        <path id="prefix__Path_283" d="M174.538 220.662a6.508 6.508 0 0 0-.712.037 6.607 6.607 0 0 0-11.579-6.36 6.379 6.379 0 0 1 .947-.067 6.623 6.623 0 0 1 5.416 2.823c1.684 2.466-1.893 6.626 2.373 7.636 3.2.759 5.4 1.993 5.4 5.763a6.555 6.555 0 0 1-.893 3.316 6.608 6.608 0 0 0-.951-13.148zm0 0" class="prefix__cls-10" data-name="Path 283" transform="translate(-95.771 -124.576)"/>
        <path id="prefix__Path_284" d="M326.294 220.662a6.631 6.631 0 0 0-.715.037 6.605 6.605 0 0 0-11.579-6.36 6.357 6.357 0 0 1 .946-.067c1.858 0 4.893 1.083 5.517 3.087.6 1.943-.85 4.209.679 5.93 1.147 1.293 3.313 1.016 4.677 2.185a6.646 6.646 0 0 1 2.311 5.021 6.554 6.554 0 0 1-.891 3.316 6.608 6.608 0 0 0-.947-13.148zm0 0" class="prefix__cls-10" data-name="Path 284" transform="translate(-185.351 -124.576)"/>
        <path id="prefix__Path_285" d="M229.252 269.409h-89.624a2.105 2.105 0 0 1-2.1-2.1v-8.527a2.105 2.105 0 0 1 2.1-2.1h89.624a2.105 2.105 0 0 1 2.106 2.1v8.518a2.105 2.105 0 0 1-2.106 2.109zm0 0" class="prefix__cls-7" data-name="Path 285" transform="translate(-81.177 -151.51)"/>
        <path id="prefix__Path_286" d="M352.991 258.781v8.519a2.105 2.105 0 0 1-2.1 2.1h-7.308a2.105 2.105 0 0 0 2.1-2.1v-8.524a2.1 2.1 0 0 0-2.1-2.1h7.308a2.1 2.1 0 0 1 2.1 2.105zm0 0" class="prefix__cls-8" data-name="Path 286" transform="translate(-202.808 -151.512)"/>
        <path id="prefix__Path_287" d="M11.5 437.471A11.5 11.5 0 0 0 .005 449.29a11.65 11.65 0 0 0 11.73 11.171h32.832a11.576 11.576 0 1 0-3.888-22.48 1.43 1.43 0 0 1-1.749-.7c-1.344-2.561-3.62-4.121-7.226-4.705a1.432 1.432 0 0 1-1.16-1.045c-.555-2.093-2.553-7.045-9.02-6.832a7.963 7.963 0 0 0-7.861 7.809 7.731 7.731 0 0 0 .656 3.106 1.426 1.426 0 0 1-1.4 1.924zm0 0" class="prefix__cls-11" data-name="Path 287" transform="translate(0 -250.689)"/>
        <path id="prefix__Path_288" d="M76.094 448.083a11.582 11.582 0 0 0-15.44-10.1 1.432 1.432 0 0 1-1.746-.7c-1.343-2.559-3.62-4.12-7.228-4.705a1.43 1.43 0 0 1-1.16-1.044c-.557-2.092-2.551-7.047-9.022-6.832a8.061 8.061 0 0 0-7.655 6.074 8.312 8.312 0 0 1 2.053-.328c6.466-.21 8.465 4.741 9.02 6.836a1.441 1.441 0 0 0 1.162 1.045c3.6.584 5.88 2.146 7.226 4.705a1.433 1.433 0 0 0 1.748.7 11.449 11.449 0 0 1 4.734-.639 11.608 11.608 0 0 1 10.7 10.741 11.483 11.483 0 0 1-.976 5.51 11.583 11.583 0 0 0 6.583-11.261zm0 0" class="prefix__cls-12" data-name="Path 288" transform="translate(-19.977 -250.688)"/>
        <path id="prefix__Path_289" d="M410.268 437.534a1.424 1.424 0 0 1-1.4-1.924 7.763 7.763 0 0 0 .655-3.107 7.965 7.965 0 0 0-7.86-7.81c-6.467-.211-8.466 4.741-9.02 6.834a1.434 1.434 0 0 1-1.162 1.045c-3.6.584-5.882 2.145-7.226 4.705a1.432 1.432 0 0 1-1.749.7 11.576 11.576 0 1 0-3.886 22.48h32.83a11.652 11.652 0 0 0 11.731-11.173 11.5 11.5 0 0 0-11.491-11.818zm0 0" class="prefix__cls-11" data-name="Path 289" transform="translate(-216.659 -250.686)"/>
        <path id="prefix__Path_290" d="M450.293 437.469l-1.423.067a1.424 1.424 0 0 1-1.4-1.924 7.733 7.733 0 0 0 .651-3.106 7.962 7.962 0 0 0-7.858-7.809 8.243 8.243 0 0 0-7.825 4 7.926 7.926 0 0 1 7.029 7.745c-.01 2.327-1.61 5 .92 6.69 2.438 1.624 5.61.727 8.263 1.618 3.459 1.162 4.566 5.131 4.475 8.474a11.235 11.235 0 0 1-2.9 7.231 11.645 11.645 0 0 0 11.555-11.171 11.5 11.5 0 0 0-11.487-11.815zm0 0" class="prefix__cls-12" data-name="Path 290" transform="translate(-255.262 -250.688)"/>
        <g id="prefix__Group_26" data-name="Group 26" transform="translate(94.279 63.284)">
            <path id="prefix__Path_291" d="M231.45 163.8a3.155 3.155 0 0 0 4.4-.773l2.524-3.6a3.157 3.157 0 1 0-5.174-3.627l-2.524 3.6a3.155 3.155 0 0 0 .771 4.4zm0 0" class="prefix__cls-13" data-name="Path 291" transform="translate(-230.105 -154.46)"/>
            <path id="prefix__Path_292" d="M245.216 173.515a3.157 3.157 0 0 0 4.4-.771l6.015-8.577a3.157 3.157 0 0 0-5.169-3.627l-6.015 8.577a3.158 3.158 0 0 0 .769 4.398zm0 0" class="prefix__cls-13" data-name="Path 292" transform="translate(-238.231 -157.255)"/>
        </g>
    </g>
</svg>
