<svg xmlns="http://www.w3.org/2000/svg" width="390.667" height="396.815" viewBox="0 0 390.667 396.815">
    <defs>
        <style>
            .prefix__cls-2{fill:#c9f0ff}.prefix__cls-3{fill:#9ae7fd}.prefix__cls-7{fill:#ea4444}.prefix__cls-8{fill:#d93131}.prefix__cls-9{fill:#5ee2c5}.prefix__cls-10{fill:#00d3b4}.prefix__cls-11{fill:#509e49}.prefix__cls-12{fill:#44873e}.prefix__cls-13{fill:#64dcfc}
        </style>
    </defs>
    <g id="prefix__architecture-and-city" transform="translate(-.001 .001)">
        <path id="prefix__Path_269" d="M334 408.915H103.309V114.25L216.8 54.264a3.967 3.967 0 0 1 3.721 0L334 114.25zm0 0" data-name="Path 269" transform="translate(-23.242 -12.104)" style="fill:#fab2b2"/>
        <path id="prefix__Path_270" d="M167.234 339.012h65.72v134.064h-65.72zm0 0" class="prefix__cls-2" data-name="Path 270" transform="translate(-37.623 -76.269)"/>
        <path id="prefix__Path_271" d="M252.031 339.012h65.72v134.064h-65.72zm0 0" class="prefix__cls-2" data-name="Path 271" transform="translate(-56.7 -76.269)"/>
        <path id="prefix__Path_272" d="M317.422 339.012h15.04v134.064h-15.04zm0 0" class="prefix__cls-3" data-name="Path 272" transform="translate(-71.411 -76.269)"/>
        <path id="prefix__Path_273" d="M232.629 339.012h15.037v134.064h-15.037zm0 0" class="prefix__cls-3" data-name="Path 273" transform="translate(-52.335 -76.269)"/>
        <path id="prefix__Path_274" d="M300.1 346.933H161.379a3.98 3.98 0 0 1-3.981-3.981v-14.366a3.982 3.982 0 0 1 3.981-3.981H300.1a3.982 3.982 0 0 1 3.981 3.981v14.365a3.98 3.98 0 0 1-3.981 3.982zm0 0" data-name="Path 274" transform="translate(-35.41 -73.028)" style="fill:#babac0"/>
        <path id="prefix__Path_275" d="M341.322 328.59v14.365a3.982 3.982 0 0 1-3.981 3.981h-14.435a3.982 3.982 0 0 0 3.981-3.981V328.59a3.978 3.978 0 0 0-3.981-3.981h14.435a3.98 3.98 0 0 1 3.981 3.981zm0 0" data-name="Path 275" transform="translate(-72.645 -73.029)" style="fill:#a1a1a7"/>
        <path id="prefix__Path_276" d="M361.885 114.249v294.668h-17.42V127.349a3.982 3.982 0 0 0-2.122-3.518L230.98 64.956a4.015 4.015 0 0 0-3.727 0l17.423-10.693a3.963 3.963 0 0 1 3.727 0zm0 0" data-name="Path 276" transform="translate(-51.126 -12.103)" style="fill:#f89696"/>
        <path id="prefix__Path_277" d="M209.613.5L80.792 71.669A17.648 17.648 0 0 0 97.6 102.7l112.07-59.5a3.975 3.975 0 0 1 3.733 0l112.067 59.5a17.648 17.648 0 0 0 16.811-31.034L213.464.5a3.976 3.976 0 0 0-3.851 0zm0 0" class="prefix__cls-7" data-name="Path 277" transform="translate(-16.126 -.001)"/>
        <path id="prefix__Path_278" d="M388.426 87.114a17.433 17.433 0 0 1-7.224 14.238 18.721 18.721 0 0 0 .4-3.887 18.579 18.579 0 0 0-9.594-16.251L236.493 6.348c-.079-.039-.16-.088-.239-.121L246.635.5a3.982 3.982 0 0 1 3.854 0L379.31 71.668a17.641 17.641 0 0 1 9.116 15.446zm0 0" class="prefix__cls-8" data-name="Path 278" transform="translate(-53.151)"/>
        <path id="prefix__Path_279" d="M284.415 244.9h-91.247v-88.327a45.624 45.624 0 1 1 91.247 0zm0 0" class="prefix__cls-2" data-name="Path 279" transform="translate(-43.457 -24.961)"/>
        <path id="prefix__Path_280" d="M295.037 156.573V244.9h-18.032v-88.327a45.655 45.655 0 0 0-36.611-44.731 46.071 46.071 0 0 1 9.022-.893 45.62 45.62 0 0 1 45.621 45.624zm0 0" class="prefix__cls-3" data-name="Path 280" transform="translate(-54.082 -24.961)"/>
        <path id="prefix__Path_281" d="M181.378 254.235a12.5 12.5 0 1 0-1.35-24.928 12.5 12.5 0 1 0-22.17.012 12.907 12.907 0 0 0-1.42-.085 12.5 12.5 0 0 0 0 25h24.94zm0 0" class="prefix__cls-9" data-name="Path 281" transform="translate(-32.382 -47.479)"/>
        <path id="prefix__Path_282" d="M333.131 254.235a12.5 12.5 0 1 0-1.35-24.928 12.5 12.5 0 1 0-22.17.012 12.9 12.9 0 0 0-1.42-.085 12.5 12.5 0 1 0 0 25h24.94zm0 0" class="prefix__cls-9" data-name="Path 282" transform="translate(-66.521 -47.479)"/>
        <path id="prefix__Path_283" d="M185.5 229.238a12.312 12.312 0 0 0-1.347.07 12.5 12.5 0 0 0-21.9-12.031 12.067 12.067 0 0 1 1.792-.127 12.529 12.529 0 0 1 10.245 5.34c3.185 4.665-3.581 12.534 4.49 14.444 6.061 1.435 10.212 3.769 10.212 10.9a12.4 12.4 0 0 1-1.689 6.273 12.5 12.5 0 0 0-1.8-24.87zm0 0" class="prefix__cls-10" data-name="Path 283" transform="translate(-36.501 -47.479)"/>
        <path id="prefix__Path_284" d="M337.252 229.238a12.544 12.544 0 0 0-1.353.07A12.494 12.494 0 0 0 314 217.277a12.027 12.027 0 0 1 1.789-.127c3.515 0 9.255 2.05 10.436 5.84 1.144 3.675-1.608 7.962 1.284 11.217 2.171 2.446 6.267 1.922 8.846 4.132a12.571 12.571 0 0 1 4.372 9.5 12.4 12.4 0 0 1-1.686 6.273 12.5 12.5 0 0 0-1.792-24.87zm0 0" class="prefix__cls-10" data-name="Path 284" transform="translate(-70.642 -47.479)"/>
        <path id="prefix__Path_285" d="M311.039 280.765H141.5a3.982 3.982 0 0 1-3.981-3.981v-16.13a3.982 3.982 0 0 1 3.981-3.981h169.539a3.983 3.983 0 0 1 3.984 3.981v16.13a3.983 3.983 0 0 1-3.984 3.981zm0 0" class="prefix__cls-7" data-name="Path 285" transform="translate(-30.939 -57.745)"/>
        <path id="prefix__Path_286" d="M361.383 260.657v16.124a3.982 3.982 0 0 1-3.981 3.981h-13.824a3.982 3.982 0 0 0 3.981-3.981v-16.124a3.978 3.978 0 0 0-3.981-3.981H357.4a3.978 3.978 0 0 1 3.983 3.981zm0 0" class="prefix__cls-8" data-name="Path 286" transform="translate(-77.296 -57.746)"/>
        <path id="prefix__Path_287" d="M21.746 448.866A21.746 21.746 0 0 0 .009 471.223c.324 11.843 10.339 21.132 22.188 21.132H84.3a21.9 21.9 0 1 0-7.354-42.524 2.706 2.706 0 0 1-3.309-1.326c-2.543-4.844-6.848-7.8-13.669-8.9a2.709 2.709 0 0 1-2.195-1.977c-1.051-3.96-4.829-13.327-17.063-12.924-8.12.263-14.9 6.648-14.871 14.771a14.624 14.624 0 0 0 1.241 5.876 2.7 2.7 0 0 1-2.652 3.639zm0 0" class="prefix__cls-11" data-name="Path 287" transform="translate(0 -95.544)"/>
        <path id="prefix__Path_288" d="M113.766 468.94a21.909 21.909 0 0 0-29.206-19.106 2.709 2.709 0 0 1-3.3-1.332c-2.54-4.841-6.848-7.793-13.672-8.9a2.705 2.705 0 0 1-2.195-1.974c-1.054-3.957-4.826-13.33-17.066-12.924a15.248 15.248 0 0 0-14.48 11.489 15.726 15.726 0 0 1 3.884-.621c12.231-.4 16.012 8.967 17.063 12.93a2.726 2.726 0 0 0 2.2 1.977c6.815 1.105 11.123 4.06 13.669 8.9a2.711 2.711 0 0 0 3.306 1.329 21.658 21.658 0 0 1 8.955-1.208 21.958 21.958 0 0 1 20.242 20.317 21.721 21.721 0 0 1-1.847 10.424 21.91 21.91 0 0 0 12.452-21.3zm0 0" class="prefix__cls-12" data-name="Path 288" transform="translate(-7.614 -95.544)"/>
        <path id="prefix__Path_289" d="M448.809 448.989a2.694 2.694 0 0 1-2.649-3.639 14.687 14.687 0 0 0 1.238-5.876c.024-8.123-6.751-14.508-14.868-14.774-12.234-.4-16.015 8.967-17.063 12.927a2.713 2.713 0 0 1-2.2 1.977c-6.818 1.105-11.126 4.057-13.669 8.9a2.709 2.709 0 0 1-3.309 1.326 21.9 21.9 0 1 0-7.351 42.524h62.1c11.849 0 21.864-9.288 22.191-21.135a21.745 21.745 0 0 0-21.729-22.354zm0 0" class="prefix__cls-11" data-name="Path 289" transform="translate(-82.575 -95.543)"/>
        <path id="prefix__Path_290" d="M466.21 448.862l-2.691.127a2.694 2.694 0 0 1-2.643-3.639 14.628 14.628 0 0 0 1.232-5.876c.024-8.123-6.751-14.508-14.865-14.771-8.056-.269-12.443 3.7-14.8 7.572 7.405.987 13.321 7.063 13.3 14.65-.018 4.4-3.046 9.461 1.741 12.655 4.611 3.073 10.611 1.374 15.631 3.061 6.542 2.2 8.637 9.706 8.465 16.03a21.253 21.253 0 0 1-5.486 13.678c11.707-.167 21.531-9.394 21.858-21.132a21.75 21.75 0 0 0-21.742-22.355zm0 0" class="prefix__cls-12" data-name="Path 290" transform="translate(-97.287 -95.544)"/>
        <g id="prefix__Group_26" data-name="Group 26" transform="translate(178.338 119.71)">
            <path id="prefix__Path_291" d="M232.649 172.132a5.968 5.968 0 0 0 8.319-1.462l4.774-6.809a5.972 5.972 0 1 0-9.778-6.861l-4.774 6.812a5.968 5.968 0 0 0 1.459 8.316zm0 0" class="prefix__cls-13" data-name="Path 291" transform="translate(-230.105 -154.46)"/>
            <path id="prefix__Path_292" d="M246.414 186.282a5.971 5.971 0 0 0 8.319-1.459l11.378-16.223a5.973 5.973 0 0 0-9.779-6.86l-11.377 16.224a5.974 5.974 0 0 0 1.459 8.318zm0 0" class="prefix__cls-13" data-name="Path 292" transform="translate(-233.202 -155.525)"/>
        </g>
    </g>
</svg>
