<svg xmlns="http://www.w3.org/2000/svg" width="29.867" height="29.867" viewBox="0 0 29.867 29.867">
    <defs>
        <style>
            .prefix__cls-1{fill:rgba(89,87,87,.78)}
        </style>
    </defs>
    <g id="prefix__calendar">
        <path id="prefix__Path_498" d="M64.933 239.646h3.111a.934.934 0 0 0 .933-.933V235.6a.934.934 0 0 0-.933-.933h-3.111a.934.934 0 0 0-.933.933v3.111a.934.934 0 0 0 .933.935zm0 0" class="prefix__cls-1" data-name="Path 498" transform="translate(-60.266 -220.979)"/>
        <path id="prefix__Path_499" d="M64.933 367.646h3.111a.934.934 0 0 0 .933-.933V363.6a.934.934 0 0 0-.933-.933h-3.111a.934.934 0 0 0-.933.933v3.111a.934.934 0 0 0 .933.935zm0 0" class="prefix__cls-1" data-name="Path 499" transform="translate(-60.266 -341.512)"/>
        <path id="prefix__Path_500" d="M214.265 239.646h3.111a.934.934 0 0 0 .933-.933V235.6a.934.934 0 0 0-.933-.933h-3.111a.934.934 0 0 0-.933.933v3.111a.934.934 0 0 0 .933.935zm0 0" class="prefix__cls-1" data-name="Path 500" transform="translate(-200.887 -220.979)"/>
        <path id="prefix__Path_501" d="M214.265 367.646h3.111a.934.934 0 0 0 .933-.933V363.6a.934.934 0 0 0-.933-.933h-3.111a.934.934 0 0 0-.933.933v3.111a.934.934 0 0 0 .933.935zm0 0" class="prefix__cls-1" data-name="Path 501" transform="translate(-200.887 -341.512)"/>
        <path id="prefix__Path_502" d="M363.6 239.646h3.111a.934.934 0 0 0 .933-.933V235.6a.934.934 0 0 0-.933-.933H363.6a.934.934 0 0 0-.933.933v3.111a.934.934 0 0 0 .933.935zm0 0" class="prefix__cls-1" data-name="Path 502" transform="translate(-341.512 -220.979)"/>
        <path id="prefix__Path_503" d="M26.134 3.733H24.89V1.244A1.245 1.245 0 0 0 23.645 0H22.4a1.245 1.245 0 0 0-1.244 1.244v2.489H8.711V1.244A1.245 1.245 0 0 0 7.467 0H6.223a1.245 1.245 0 0 0-1.245 1.244v2.489H3.734A3.738 3.738 0 0 0 0 7.467v18.667a3.738 3.738 0 0 0 3.733 3.733h22.4a3.738 3.738 0 0 0 3.733-3.733V7.467a3.738 3.738 0 0 0-3.733-3.733zm1.244 22.4a1.246 1.246 0 0 1-1.244 1.244h-22.4a1.246 1.246 0 0 1-1.244-1.244V12.494h24.888zm0 0" class="prefix__cls-1" data-name="Path 503"/>
    </g>
</svg>
