<svg xmlns="http://www.w3.org/2000/svg" id="prefix__close" width="59.667" height="38.319" viewBox="0 0 59.667 38.319">
    <defs>
        <style>
            .prefix__cls-1{fill:#fbb811}
        </style>
    </defs>
    <path id="prefix__Path_522" d="M38.5 46.583a13.658 13.658 0 0 0 13.635-13.795A13.864 13.864 0 0 0 38.26 18.994c-.076 0-.191.01-.267.012a17.475 17.475 0 0 1 10.936-3.844 3.44 3.44 0 0 0 3.438-3.449 3.192 3.192 0 0 0-3.131-3.449A24.284 24.284 0 0 0 25.03 32.788v.012A13.52 13.52 0 0 0 38.5 46.583z" class="prefix__cls-1" data-name="Path 522" transform="translate(-25.03 -8.264)"/>
    <path id="prefix__Path_523" d="M13.491 46.583a13.667 13.667 0 0 0 13.644-13.795 13.86 13.86 0 0 0-13.871-13.794c-.076 0-.189.01-.265.012a17.478 17.478 0 0 1 10.938-3.844 3.441 3.441 0 0 0 3.44-3.449 3.207 3.207 0 0 0-3.15-3.449A24.3 24.3 0 0 0 0 32.788v.012a13.536 13.536 0 0 0 13.491 13.783z" class="prefix__cls-1" data-name="Path 523" transform="translate(32.291 -8.264)"/>
</svg>
