<svg xmlns="http://www.w3.org/2000/svg" id="prefix__close" width="59.667" height="38.319" viewBox="0 0 59.667 38.319">
    <defs>
        <style>
            .prefix__cls-1{fill:#fbb811}
        </style>
    </defs>
    <path id="prefix__Path_522" d="M38.9 8.264a13.658 13.658 0 0 0-13.638 13.795 13.864 13.864 0 0 0 13.875 13.794c.076 0 .191-.01.267-.012a17.475 17.475 0 0 1-10.936 3.844 3.44 3.44 0 0 0-3.438 3.449 3.192 3.192 0 0 0 3.131 3.449 24.284 24.284 0 0 0 24.206-24.524v-.009A13.52 13.52 0 0 0 38.9 8.264z" class="prefix__cls-1" data-name="Path 522" transform="translate(7.3 -8.264)"/>
    <path id="prefix__Path_523" d="M13.885 8.264A13.667 13.667 0 0 0 .242 22.059a13.86 13.86 0 0 0 13.87 13.794c.076 0 .189-.01.265-.012A17.478 17.478 0 0 1 3.44 39.686 3.441 3.441 0 0 0 0 43.134a3.207 3.207 0 0 0 3.15 3.449 24.3 24.3 0 0 0 24.226-24.524v-.009A13.536 13.536 0 0 0 13.885 8.264z" class="prefix__cls-1" data-name="Path 523" transform="translate(0 -8.264)"/>
</svg>
