<svg xmlns="http://www.w3.org/2000/svg" width="186.832" height="188" viewBox="0 0 186.832 188">
    <defs>
        <style>
            .prefix__cls-4{fill:#cacbcb}
        </style>
    </defs>
    <g id="prefix__construction" transform="translate(-1.591)">
        <path id="prefix__Path_293" d="M67.235 118.668v6.964a1.412 1.412 0 0 1-1.411 1.411h-3.693a20.546 20.546 0 0 1-2.428 5.872l2.609 2.609a1.418 1.418 0 0 1 0 2l-4.924 4.924a1.418 1.418 0 0 1-2 0l-2.609-2.608a20.542 20.542 0 0 1-5.872 2.428v3.693a1.412 1.412 0 0 1-1.411 1.411h-6.963a1.412 1.412 0 0 1-1.411-1.411v-3.692a20.547 20.547 0 0 1-5.872-2.428l-2.609 2.608a1.418 1.418 0 0 1-2 0l-4.924-4.924a1.418 1.418 0 0 1 0-2l2.609-2.609a20.542 20.542 0 0 1-2.428-5.872h-3.693a1.412 1.412 0 0 1-1.411-1.411v-6.964a1.412 1.412 0 0 1 1.411-1.411H21.9a20.546 20.546 0 0 1 2.428-5.872l-2.609-2.609a1.418 1.418 0 0 1 0-2l4.924-4.924a1.418 1.418 0 0 1 2 0l2.609 2.609a20.542 20.542 0 0 1 5.872-2.428v-3.693a1.412 1.412 0 0 1 1.411-1.411H45.5a1.412 1.412 0 0 1 1.411 1.411v3.693a20.546 20.546 0 0 1 5.872 2.428l2.609-2.609a1.418 1.418 0 0 1 2 0l4.924 4.924a1.418 1.418 0 0 1 0 2l-2.616 2.608a20.542 20.542 0 0 1 2.428 5.872h3.693a1.412 1.412 0 0 1 1.414 1.411zm-14.3 3.482a10.916 10.916 0 1 0-10.916 10.917 10.915 10.915 0 0 0 10.912-10.917z" data-name="Path 293" transform="translate(-9.621 -61.339)" style="fill:#fdcd08"/>
        <path id="prefix__Path_294" d="M335.828 372.909v6.964a1.412 1.412 0 0 1-1.411 1.411h-3.693a20.547 20.547 0 0 1-2.428 5.872l2.608 2.608a1.418 1.418 0 0 1 0 2l-4.924 4.924a1.418 1.418 0 0 1-2 0l-2.608-2.608a20.543 20.543 0 0 1-5.872 2.428v3.692a1.412 1.412 0 0 1-1.411 1.411h-6.964a1.412 1.412 0 0 1-1.411-1.411v-3.693a20.548 20.548 0 0 1-5.872-2.428l-2.609 2.608a1.418 1.418 0 0 1-2 0l-4.924-4.924a1.418 1.418 0 0 1 0-2l2.608-2.609a20.543 20.543 0 0 1-2.428-5.872H286.8a1.412 1.412 0 0 1-1.411-1.411v-6.964a1.412 1.412 0 0 1 1.411-1.407h3.693a20.547 20.547 0 0 1 2.428-5.872l-2.608-2.608a1.418 1.418 0 0 1 0-2l4.924-4.924a1.418 1.418 0 0 1 2 0l2.609 2.609a20.542 20.542 0 0 1 5.872-2.428v-3.693a1.412 1.412 0 0 1 1.411-1.411h6.964a1.412 1.412 0 0 1 1.411 1.411v3.693a20.55 20.55 0 0 1 5.872 2.428l2.608-2.609a1.418 1.418 0 0 1 2 0l4.924 4.924a1.418 1.418 0 0 1 0 2l-2.608 2.608a20.543 20.543 0 0 1 2.428 5.872h3.693a1.411 1.411 0 0 1 1.407 1.409zm-14.3 3.482a10.916 10.916 0 1 0-10.917 10.916 10.915 10.915 0 0 0 10.913-10.917z" data-name="Path 294" transform="translate(-179.59 -222.225)" style="fill:#32b678"/>
        <path id="prefix__Path_295" d="M305.257 48.721h-5.244a1.027 1.027 0 0 1-1-.813 47.63 47.63 0 0 0-6.535-15.772 1.024 1.024 0 0 1 .128-1.284l3.712-3.712a4.975 4.975 0 0 0 0-7.035l-6.2-6.193a4.971 4.971 0 0 0-7.032 0l-3.712 3.708a1.025 1.025 0 0 1-1.284.132 47.662 47.662 0 0 0-15.772-6.535 1.023 1.023 0 0 1-.813-1V4.973A4.974 4.974 0 0 0 256.532 0h-8.759a4.974 4.974 0 0 0-4.973 4.972v5.244a1.024 1.024 0 0 1-.813 1 47.694 47.694 0 0 0-15.772 6.535 1.025 1.025 0 0 1-1.284-.132l-3.708-3.708a4.975 4.975 0 0 0-7.035 0l-6.2 6.192a4.975 4.975 0 0 0 0 7.035l3.712 3.712a1.03 1.03 0 0 1 .132 1.284 47.559 47.559 0 0 0-6.539 15.772 1.027 1.027 0 0 1-1 .813h-5.244a4.975 4.975 0 0 0-4.972 4.972v8.763a4.973 4.973 0 0 0 4.972 4.972h5.244a1.027 1.027 0 0 1 1 .817 47.752 47.752 0 0 0 5.786 14.568l1.705 2.936 14.632 13.4a47.606 47.606 0 0 0 14.568 5.782 1.029 1.029 0 0 1 .813 1v5.244a4.977 4.977 0 0 0 4.977 4.977h8.759a4.977 4.977 0 0 0 4.977-4.977v-5.244a1.027 1.027 0 0 1 .813-1 47.661 47.661 0 0 0 15.771-6.529 1.025 1.025 0 0 1 1.284.132l3.712 3.712a4.971 4.971 0 0 0 7.032 0l6.2-6.2a4.975 4.975 0 0 0 0-7.035l-3.716-3.709a1.03 1.03 0 0 1-.128-1.287 47.643 47.643 0 0 0 6.535-15.769 1.027 1.027 0 0 1 1-.817h5.244a4.973 4.973 0 0 0 4.972-4.972v-8.762a4.975 4.975 0 0 0-4.972-4.972zm-53.1 44.433a34.893 34.893 0 0 1-16.9-4.333l7.419-7.419A24.945 24.945 0 0 0 276.4 50.534a.588.588 0 0 0-.973-.23l-5.543 5.543-3.184-10.609a.807.807 0 0 0-.541-.541l-10.606-3.184 5.543-5.543a.589.589 0 0 0-.23-.973A24.945 24.945 0 0 0 230 68.724l-7.728 7.732a35.084 35.084 0 1 1 29.889 16.7z" data-name="Path 295" transform="translate(-121.807)" style="fill:#5dcbf3"/>
        <path id="prefix__Path_296" d="M113.45 146.831l-64.117 64.117a24.943 24.943 0 0 1-30.2 33.94 1 1 0 0 1-.423-1.66l14.678-14.681-4.37-10.235-9.96-4.1L4.372 228.9a1 1 0 0 1-1.661-.423 24.946 24.946 0 0 1 33.944-30.2l63.808-63.8 7.728-7.732a24.945 24.945 0 0 1 30.869-33.739.588.588 0 0 1 .23.973l-5.543 5.543-9.647 9.648 4.133 9.923 10.2 4.408 9.648-9.644 5.543-5.543a.589.589 0 0 1 .973.23 24.945 24.945 0 0 1-33.724 30.868z" class="prefix__cls-4" data-name="Path 296" transform="translate(0 -58.009)"/>
        <path id="prefix__Path_297" d="M14.1 208.754a24.945 24.945 0 0 1 27.762-5.161l63.808-63.8 7.728-7.732A24.933 24.933 0 0 1 136.272 97l3.019-3.019a.589.589 0 0 0-.23-.973 24.945 24.945 0 0 0-30.868 33.728l-7.728 7.732-63.808 63.8a24.946 24.946 0 0 0-33.944 30.2 1 1 0 0 0 1.661.423l2.426-2.419a24.855 24.855 0 0 1 7.3-17.718z" data-name="Path 297" transform="translate(0 -58.009)" style="fill:#bebebd"/>
        <path id="prefix__Path_298" d="M355.484 116.239l-10.606-3.184-9.648 9.645 4.133 9.648 10.2 4.683 9.648-9.644-3.184-10.61a.807.807 0 0 0-.543-.538z" data-name="Path 298" transform="translate(-211.131 -71.543)" style="fill:#a3a4a3"/>
        <path id="prefix__Path_299" d="M366.59 136.252a3.12 3.12 0 1 1-4.412 0 3.124 3.124 0 0 1 4.412 0z" class="prefix__cls-4" data-name="Path 299" transform="translate(-227.607 -85.645)"/>
    </g>
</svg>
