<svg xmlns="http://www.w3.org/2000/svg" width="210" height="208.802" viewBox="0 0 210 208.802">
    <defs>
        <style>
            .prefix__cls-3{fill:#f9e109}.prefix__cls-4{fill:#39519d}.prefix__cls-5{fill:#fcbc04}.prefix__cls-6{fill:#e59730}.prefix__cls-7{fill:#a1d51c}
        </style>
    </defs>
    <g id="prefix__contract" transform="translate(0 -.332)">
        <path id="prefix__Path_332" d="M7.2.332h144a7.2 7.2 0 0 1 7.2 7.2v194.4a7.2 7.2 0 0 1-7.2 7.2H7.2a7.2 7.2 0 0 1-7.2-7.2V7.532a7.2 7.2 0 0 1 7.2-7.2zm0 0" data-name="Path 332" style="fill:#57b7eb"/>
        <path id="prefix__Path_333" d="M90 180.333a64.8 64.8 0 0 1-64.8-64.8V.332h-18a7.2 7.2 0 0 0-7.2 7.2v194.4a7.2 7.2 0 0 0 7.2 7.2h144a7.2 7.2 0 0 0 7.2-7.2v-21.6zm0 0" data-name="Path 333" style="fill:#4891d3"/>
        <path id="prefix__Path_334" d="M72 48.332h93.6v14.4H72zm0 0" class="prefix__cls-3" data-name="Path 334" transform="translate(-39.6 -26.4)"/>
        <g id="prefix__Group_28" data-name="Group 28" transform="translate(21.6 47.132)">
            <path id="prefix__Path_335" d="M163.6 111.532h-72a3.6 3.6 0 1 1 0-7.2h72a3.6 3.6 0 1 1 0 7.2zm0 0" class="prefix__cls-4" data-name="Path 335" transform="translate(-70 -104.332)"/>
            <path id="prefix__Path_336" d="M202.8 167.532h-79.2a3.6 3.6 0 1 1 0-7.2h79.2a3.6 3.6 0 1 1 0 7.2zm0 0" class="prefix__cls-4" data-name="Path 336" transform="translate(-87.6 -135.132)"/>
            <path id="prefix__Path_337" d="M123.6 215.532h-72a3.6 3.6 0 1 1 0-7.2h72a3.6 3.6 0 1 1 0 7.2zm0 0" class="prefix__cls-4" data-name="Path 337" transform="translate(-48 -161.532)"/>
            <path id="prefix__Path_338" d="M268.8 215.532h-25.2a3.6 3.6 0 1 1 0-7.2h25.2a3.6 3.6 0 1 1 0 7.2zm0 0" class="prefix__cls-4" data-name="Path 338" transform="translate(-153.599 -161.532)"/>
            <path id="prefix__Path_339" d="M87.6 255.532h-36a3.6 3.6 0 1 1 0-7.2h36a3.6 3.6 0 0 1 0 7.2zm0 0" class="prefix__cls-4" data-name="Path 339" transform="translate(-48 -183.531)"/>
            <path id="prefix__Path_340" d="M188.8 255.532h-25.2a3.6 3.6 0 1 1 0-7.2h25.2a3.6 3.6 0 1 1 0 7.2zm0 0" class="prefix__cls-4" data-name="Path 340" transform="translate(-109.6 -183.531)"/>
        </g>
        <path id="prefix__Path_341" d="M165.6 62.732H72v-14.4zm0 0" class="prefix__cls-5" data-name="Path 341" transform="translate(-39.6 -26.4)"/>
        <path id="prefix__Path_342" d="M86 339.332a27 27 0 1 1-27-27 27 27 0 0 1 27 27zm0 0" class="prefix__cls-3" data-name="Path 342" transform="translate(-17.6 -171.599)"/>
        <path id="prefix__Path_343" d="M58.994 368.752A27 27 0 0 0 84.662 350.1a64.794 64.794 0 0 1-35.82-33.37 27 27 0 0 0 10.151 52.021zm0 0" class="prefix__cls-5" data-name="Path 343" transform="translate(-17.593 -174.018)"/>
        <path id="prefix__Path_344" d="M187.6 364.086a3.093 3.093 0 0 1-1.151-.181 3.6 3.6 0 0 1-2.269-4.535l8.856-26.568a7.2 7.2 0 0 1 14 1.691l1.225 14.4 1.3-2.2a7.137 7.137 0 0 1 12.851.9l2.3 5.688 10.477-13.321a3.6 3.6 0 0 1 5.651 4.465l-10.512 13.356a7.2 7.2 0 0 1-12.312-1.837l-2.232-5.651-1.332 2.2a7.2 7.2 0 0 1-13.356-2.807l-1.223-14.616-8.673 26.423a3.6 3.6 0 0 1-3.6 2.593zm0 0" class="prefix__cls-4" data-name="Path 344" transform="translate(-101.197 -180.152)"/>
        <path id="prefix__Path_345" d="M73.087 369.662a7.2 7.2 0 0 1-5.077-2.088l-7.632-7.632a3.6 3.6 0 1 1 5.077-5.112l7.632 7.632 12.742-12.707a3.6 3.6 0 0 1 5.077 5.075L78.2 367.574a7.2 7.2 0 0 1-5.112 2.088zm0 0" class="prefix__cls-4" data-name="Path 345" transform="translate(-32.622 -191.705)"/>
        <path id="prefix__Path_346" d="M355.65 155.738l18.707 10.8-32.4 56.12-18.707-10.8zm0 0" class="prefix__cls-5" data-name="Path 346" transform="translate(-177.786 -85.473)"/>
        <path id="prefix__Path_347" d="M340.12 215.371L323.2 244.6l18.721 10.8 5.472-9.54a97.167 97.167 0 0 1-7.273-30.489zm0 0" class="prefix__cls-6" data-name="Path 347" transform="translate(-177.758 -118.271)"/>
        <path id="prefix__Path_348" d="M332.549 291.292l-18.721-10.8-7.668 20.484 12.456 7.2zm0 0" class="prefix__cls-7" data-name="Path 348" transform="translate(-168.387 -154.087)"/>
        <path id="prefix__Path_349" d="M301.823 327.465l12.528 7.2-3.6 6.263a7.225 7.225 0 1 1-12.528-7.2zm0 0" class="prefix__cls-6" data-name="Path 349" transform="translate(-163.492 -179.922)"/>
        <path id="prefix__Path_350" d="M405.98 114.2l18.707 10.8-10.8 18.707-18.707-10.8zm0 0" class="prefix__cls-5" data-name="Path 350" transform="translate(-217.348 -62.629)"/>
        <path id="prefix__Path_351" d="M439.545 97.315a7.2 7.2 0 0 1 2.635 9.835l-3.6 6.235-12.47-7.2 3.6-6.235a7.2 7.2 0 0 1 9.835-2.635zm0 0" data-name="Path 351" transform="translate(-234.359 -52.809)" style="fill:#c4f236"/>
        <path id="prefix__Path_352" d="M384.32 167.134l3.6-6.235 18.707 10.8-3.6 6.235zm0 0" class="prefix__cls-6" data-name="Path 352" transform="translate(-211.375 -88.311)"/>
        <path id="prefix__Path_353" d="M396.362 199.727a3.582 3.582 0 0 1-3.1-5.4l14.4-24.949a3.607 3.607 0 0 0-1.332-4.931l-31.177-18a3.6 3.6 0 1 1 3.6-6.228l31.177 18a10.794 10.794 0 0 1 3.96 14.759l-14.4 24.949a3.6 3.6 0 0 1-3.132 1.8zm0 0" class="prefix__cls-4" data-name="Path 353" transform="translate(-205.344 -76.67)"/>
        <path id="prefix__Path_354" d="M435.988 99.912a14.652 14.652 0 0 1 .5-3.6 7.2 7.2 0 0 0-6.732 3.6l-3.6 6.228 12.456 7.2 1.8-3.1a14.187 14.187 0 0 1-4.428-10.332zm0 0" class="prefix__cls-7" data-name="Path 354" transform="translate(-234.387 -52.779)"/>
    </g>
</svg>
