<svg xmlns="http://www.w3.org/2000/svg" width="178.069" height="178.069" viewBox="0 0 178.069 178.069">
    <defs>
        <style>
            .prefix__cls-2{fill:#316596}.prefix__cls-3{fill:#f2be07}.prefix__cls-4{fill:#efefef}.prefix__cls-7{fill:#e05551}
        </style>
    </defs>
    <g id="prefix__corporate" transform="translate(-3 -3)">
        <path id="prefix__Path_300" d="M117.1 3H37.957A3.956 3.956 0 0 0 34 6.957v174.112h87.056V6.957A3.956 3.956 0 0 0 117.1 3z" data-name="Path 300" transform="translate(30.335)" style="fill:#ef6662"/>
        <path id="prefix__Path_301" d="M18.979 44.7A1.979 1.979 0 0 1 17 42.721V18.979a1.979 1.979 0 1 1 3.957 0v23.742a1.979 1.979 0 0 1-1.978 1.979z" class="prefix__cls-2" data-name="Path 301" transform="translate(13.7 13.7)"/>
        <path id="prefix__Path_302" d="M64.335 29v126.627H6.957A3.956 3.956 0 0 1 3 151.67V32.957A3.956 3.956 0 0 1 6.957 29z" class="prefix__cls-3" data-name="Path 302" transform="translate(0 25.442)"/>
        <g id="prefix__Group_27" data-name="Group 27" transform="translate(12.893 12.893)">
            <path id="prefix__Path_303" d="M8 34h15.828v15.828H8z" class="prefix__cls-4" data-name="Path 303" transform="translate(-8 17.442)"/>
            <path id="prefix__Path_304" d="M21 34h15.828v15.828H21z" class="prefix__cls-4" data-name="Path 304" transform="translate(4.721 17.442)"/>
            <path id="prefix__Path_305" d="M8 47h15.828v15.828H8z" class="prefix__cls-4" data-name="Path 305" transform="translate(-8 30.163)"/>
            <path id="prefix__Path_306" d="M21 47h15.828v15.828H21z" class="prefix__cls-4" data-name="Path 306" transform="translate(4.721 30.163)"/>
            <path id="prefix__Path_307" d="M8 60h15.828v15.828H8z" class="prefix__cls-4" data-name="Path 307" transform="translate(-8 42.884)"/>
            <path id="prefix__Path_308" d="M21 60h15.828v15.828H21z" class="prefix__cls-4" data-name="Path 308" transform="translate(4.721 42.884)"/>
            <path id="prefix__Path_309" d="M39 8h15.828v15.828H39z" class="prefix__cls-4" data-name="Path 309" transform="translate(22.335 -8)"/>
            <path id="prefix__Path_310" d="M52 8h15.828v15.828H52z" class="prefix__cls-4" data-name="Path 310" transform="translate(35.056 -8)"/>
            <path id="prefix__Path_311" d="M65 8h15.828v15.828H65z" class="prefix__cls-4" data-name="Path 311" transform="translate(47.777 -8)"/>
            <path id="prefix__Path_312" d="M39 21h15.828v15.828H39z" class="prefix__cls-4" data-name="Path 312" transform="translate(22.335 4.721)"/>
            <path id="prefix__Path_313" d="M52 21h15.828v15.828H52z" class="prefix__cls-4" data-name="Path 313" transform="translate(35.056 4.721)"/>
            <path id="prefix__Path_314" d="M65 21h15.828v15.828H65z" class="prefix__cls-4" data-name="Path 314" transform="translate(47.777 4.721)"/>
            <path id="prefix__Path_315" d="M39 34h15.828v15.828H39z" class="prefix__cls-4" data-name="Path 315" transform="translate(22.335 17.442)"/>
            <path id="prefix__Path_316" d="M52 34h15.828v15.828H52z" class="prefix__cls-4" data-name="Path 316" transform="translate(35.056 17.442)"/>
            <path id="prefix__Path_317" d="M65 34h15.828v15.828H65z" class="prefix__cls-4" data-name="Path 317" transform="translate(47.777 17.442)"/>
            <path id="prefix__Path_318" d="M39 47h15.828v15.828H39z" class="prefix__cls-4" data-name="Path 318" transform="translate(22.335 30.163)"/>
            <path id="prefix__Path_319" d="M52 47h15.828v15.828H52z" class="prefix__cls-4" data-name="Path 319" transform="translate(35.056 30.163)"/>
            <path id="prefix__Path_320" d="M65 47h15.828v15.828H65z" class="prefix__cls-4" data-name="Path 320" transform="translate(47.777 30.163)"/>
        </g>
        <path id="prefix__Path_321" d="M96.678 78.807a1.979 1.979 0 0 1-1.978-1.979v-5.935a5.943 5.943 0 0 0-5.936-5.936H76.893a5.943 5.943 0 0 0-5.936 5.936v5.936a1.979 1.979 0 1 1-3.957 0v-5.936A9.9 9.9 0 0 1 76.893 61h11.871a9.9 9.9 0 0 1 9.893 9.893v5.936a1.979 1.979 0 0 1-1.979 1.978z" class="prefix__cls-2" data-name="Path 321" transform="translate(62.627 56.756)"/>
        <path id="prefix__Path_322" d="M124.271 116.485H60.957A3.956 3.956 0 0 1 57 112.528V72.957A3.956 3.956 0 0 1 60.957 69h63.313a3.956 3.956 0 0 1 3.957 3.957v39.571a3.956 3.956 0 0 1-3.956 3.957z" class="prefix__cls-2" data-name="Path 322" transform="translate(52.841 64.584)"/>
        <path id="prefix__Path_323" d="M124.271 106.7H60.957A3.956 3.956 0 0 1 57 102.743V79h71.228v23.743a3.956 3.956 0 0 1-3.957 3.957z" data-name="Path 323" transform="translate(52.841 74.369)" style="fill:#6ebaed"/>
        <path id="prefix__Path_324" d="M64 77h7.914v9.893H64z" class="prefix__cls-2" data-name="Path 324" transform="translate(59.691 72.412)"/>
        <path id="prefix__Path_325" d="M82 77h7.914v9.893H82z" class="prefix__cls-2" data-name="Path 325" transform="translate(77.305 72.412)"/>
        <path id="prefix__Path_326" d="M68.871 98.871A11.865 11.865 0 0 0 57 87v7.914a3.956 3.956 0 0 0 3.957 3.957z" class="prefix__cls-3" data-name="Path 326" transform="translate(52.841 82.198)"/>
        <path id="prefix__Path_327" d="M87 98.871A11.865 11.865 0 0 1 98.871 87v7.914a3.956 3.956 0 0 1-3.957 3.957z" class="prefix__cls-3" data-name="Path 327" transform="translate(82.198 82.198)"/>
        <path id="prefix__Path_328" d="M28.232 8.044a2 2 0 0 1 2.99.192A17.81 17.81 0 0 1 6.236 33.221a2 2 0 0 1-.192-2.99z" data-name="Path 328" transform="translate(2.41 4.368)" style="fill:#3ba1e3"/>
        <path id="prefix__Path_329" d="M40 114.528V74.957A3.956 3.956 0 0 1 43.957 71h15.828a3.956 3.956 0 0 1 3.957 3.957v39.571H40z" class="prefix__cls-2" data-name="Path 329" transform="translate(36.206 66.541)"/>
        <path id="prefix__Path_330" d="M72.893 76h-7.914A1.979 1.979 0 0 0 63 77.979v9.893a1.979 1.979 0 0 0 1.979 1.979h1.979v3.957a1.979 1.979 0 0 0 3.957 0V89.85h1.979a1.979 1.979 0 0 0 1.979-1.979v-9.892A1.979 1.979 0 0 0 72.893 76zm-1.979 9.893h-3.957v-5.936h3.957z" class="prefix__cls-3" data-name="Path 330" transform="translate(58.713 71.434)"/>
        <path id="prefix__Path_331" d="M90.893 76h-7.914A1.979 1.979 0 0 0 81 77.979v9.893a1.979 1.979 0 0 0 1.979 1.979h1.979v3.957a1.979 1.979 0 0 0 3.957 0V89.85h1.979a1.979 1.979 0 0 0 1.979-1.979v-9.892A1.979 1.979 0 0 0 90.893 76zm-1.979 9.893h-3.957v-5.936h3.957z" class="prefix__cls-3" data-name="Path 331" transform="translate(76.327 71.434)"/>
        <circle id="prefix__Ellipse_4" cx="2" cy="2" r="2" class="prefix__cls-7" data-name="Ellipse 4" transform="translate(78 128)"/>
        <circle id="prefix__Ellipse_5" cx="2" cy="2" r="2" class="prefix__cls-7" data-name="Ellipse 5" transform="translate(86 128)"/>
        <circle id="prefix__Ellipse_6" cx="2" cy="2" r="2" class="prefix__cls-7" data-name="Ellipse 6" transform="translate(94 128)"/>
    </g>
</svg>
