<svg class="svg-icon" style="width: 1em; height: 1em;vertical-align: middle;fill: currentColor;overflow: hidden;" viewBox="0 0 1024 1024" version="1.1" xmlns="http://www.w3.org/2000/svg"><path d="M512 512m-400.695652 0a400.695652 400.695652 0 1 0 801.391304 0 400.695652 400.695652 0 1 0-801.391304 0Z" fill="#0B77E3" fill-opacity=".2" /><path d="M166.956522 289.413565c0-12.310261 9.984-22.28313 22.316521-22.28313h222.497392c12.321391 0 22.316522 9.99513 22.316522 22.28313v434.042435A22.294261 22.294261 0 0 1 411.770435 745.73913h-222.497392A22.316522 22.316522 0 0 1 166.956522 723.456V289.413565z m289.391304 0c0-12.310261 9.906087-22.28313 22.26087-22.28313h356.173913c12.29913 0 22.26087 9.99513 22.260869 22.28313v434.042435C857.043478 735.766261 847.137391 745.73913 834.782609 745.73913H478.608696c-12.29913 0-22.26087-9.99513-22.26087-22.28313V289.413565z" fill="#FFFFFF" /><path d="M758.338783 347.781565l-14.781218-2.949565a11.130435 11.130435 0 0 1 4.363131-21.837913L790.26087 331.464348v42.518261a11.130435 11.130435 0 0 1-22.26087 0v-5.309218L530.220522 565.103304a11.130435 11.130435 0 1 1-14.180174-17.16313l242.298435-200.158609z" fill="#0B77E3" /><path d="M211.478261 500.858435A11.108174 11.108174 0 0 1 222.608696 489.73913h155.826087c6.144 0 11.130435 4.930783 11.130434 11.119305v11.152695A11.108174 11.108174 0 0 1 378.434783 523.130435H222.608696c-6.144 0-11.130435-4.930783-11.130435-11.119305v-11.152695z m0 111.304348A11.108174 11.108174 0 0 1 222.608696 601.043478h155.826087c6.144 0 11.130435 4.930783 11.130434 11.119305v11.152695A11.108174 11.108174 0 0 1 378.434783 634.434783H222.608696c-6.144 0-11.130435-4.930783-11.130435-11.119305v-11.152695z m0-55.652174A11.108174 11.108174 0 0 1 222.608696 545.391304h155.826087c6.144 0 11.130435 4.930783 11.130434 11.119305v11.152695A11.108174 11.108174 0 0 1 378.434783 578.782609H222.608696c-6.144 0-11.130435-4.930783-11.130435-11.119305v-11.152695z m0 111.304348A11.108174 11.108174 0 0 1 222.608696 656.695652h155.826087c6.144 0 11.130435 4.930783 11.130434 11.119305v11.152695A11.108174 11.108174 0 0 1 378.434783 690.086957H222.608696c-6.144 0-11.130435-4.930783-11.130435-11.119305v-11.152695z m0-333.913044A11.108174 11.108174 0 0 1 222.608696 322.782609h155.826087c6.144 0 11.130435 4.930783 11.130434 11.119304v11.152696A11.108174 11.108174 0 0 1 378.434783 356.173913H222.608696c-6.144 0-11.130435-4.930783-11.130435-11.119304v-11.152696z m400.695652 211.433739a11.130435 11.130435 0 0 1 11.097044-11.074782h66.849391a11.130435 11.130435 0 0 1 11.097043 11.074782v189.328696a11.130435 11.130435 0 0 1-11.097043 11.074782h-66.849391a11.130435 11.130435 0 0 1-11.097044-11.074782v-189.328696z" fill="#40A0FF" /><path d="M311.652174 400.729043A11.085913 11.085913 0 0 1 322.816 389.565217h55.585391A11.085913 11.085913 0 0 1 389.565217 400.729043v55.585392A11.085913 11.085913 0 0 1 378.401391 467.478261h-55.585391A11.085913 11.085913 0 0 1 311.652174 456.314435v-55.585392z" fill="#40A0FF" /><path d="M311.652174 400.729043A11.085913 11.085913 0 0 1 322.816 389.565217h55.585391A11.085913 11.085913 0 0 1 389.565217 400.729043v55.585392A11.085913 11.085913 0 0 1 378.401391 467.478261h-55.585391A11.085913 11.085913 0 0 1 311.652174 456.314435v-55.585392zM333.913043 445.217391h33.391305v-33.391304h-33.391305v33.391304z" fill="#005CB9" /><path d="M211.478261 400.729043A11.085913 11.085913 0 0 1 222.642087 389.565217h55.585391A11.085913 11.085913 0 0 1 289.391304 400.729043v55.585392A11.085913 11.085913 0 0 1 278.227478 467.478261h-55.585391A11.085913 11.085913 0 0 1 211.478261 456.314435v-55.585392zM233.73913 445.217391h33.391305v-33.391304h-33.391305v33.391304z" fill="#005CB9" /><path d="M456.347826 289.413565c0-12.310261 9.906087-22.28313 22.26087-22.28313h356.173913c12.29913 0 22.26087 9.99513 22.260869 22.28313v434.042435C857.043478 735.766261 847.137391 745.73913 834.782609 745.73913H478.608696c-12.29913 0-22.26087-9.99513-22.26087-22.28313V289.413565z m-289.391304 0c0-12.310261 9.984-22.28313 22.316521-22.28313h222.497392c12.321391 0 22.316522 9.99513 22.316522 22.28313v434.042435A22.294261 22.294261 0 0 1 411.770435 745.73913h-222.497392A22.316522 22.316522 0 0 1 166.956522 723.456V289.413565z m22.260869 434.042435L411.770435 723.478261C411.826087 723.478261 411.826087 289.413565 411.826087 289.413565L189.273043 289.391304C189.217391 289.391304 189.217391 723.456 189.217391 723.456z m645.565218-434.042435L478.608696 289.391304v434.064696L834.782609 723.478261V289.413565zM634.434783 723.478261h44.521739V556.521739h-44.521739v166.956522z m-22.26087-178.142609a11.130435 11.130435 0 0 1 11.097044-11.074782h66.849391a11.130435 11.130435 0 0 1 11.097043 11.074782v189.328696a11.130435 11.130435 0 0 1-11.097043 11.074782h-66.849391a11.130435 11.130435 0 0 1-11.097044-11.074782v-189.328696zM745.73913 723.478261h44.52174V467.478261h-44.52174v256z m-22.260869-267.208348a11.130435 11.130435 0 0 1 11.097043-11.052522h66.849392c6.121739 0 11.097043 4.964174 11.097043 11.052522v278.416696a11.130435 11.130435 0 0 1-11.097043 11.052521h-66.849392a11.085913 11.085913 0 0 1-11.097043-11.052521V456.269913zM523.130435 723.478261h44.521739v-77.913044h-44.521739v77.913044z m-22.26087-89.088a11.130435 11.130435 0 0 1 11.097044-11.085913h66.849391c6.121739 0 11.097043 4.953043 11.097043 11.085913v100.262956a11.130435 11.130435 0 0 1-11.097043 11.085913h-66.849391a11.085913 11.085913 0 0 1-11.097044-11.085913v-100.262956z" fill="#005CB9" /></svg>