<svg xmlns="http://www.w3.org/2000/svg" width="189.078" height="184.802" viewBox="0 0 189.078 184.802">
    <defs>
        <style>
            .prefix__cls-1{fill:#ffcd00}.prefix__cls-2{fill:#ffde55}.prefix__cls-3{fill:#ddb200}.prefix__cls-8{fill:#ebbf00}.prefix__cls-10{fill:#ff5023}
        </style>
    </defs>
    <g id="prefix__Email_maketing" data-name="Email maketing" transform="translate(-3 -3.322)">
        <path id="prefix__Path_355" d="M40.13 80.9l64.353 51.508a6.408 6.408 0 0 0 2.515-5.05V30.981a6.443 6.443 0 0 0-.759-3z" class="prefix__cls-1" data-name="Path 355" transform="translate(81.835 54.358)"/>
        <path id="prefix__Path_356" d="M3.759 27.985a6.443 6.443 0 0 0-.759 3v96.377a6.408 6.408 0 0 0 2.515 5.05L69.9 80.9z" class="prefix__cls-1" data-name="Path 356" transform="translate(0 54.358)"/>
        <path id="prefix__Path_357" d="M187.536 81.655l-66.1 52.9-22.043-17.623a6.45 6.45 0 0 0-8.01 0l-22.012 17.622L3.24 81.655a6.315 6.315 0 0 1 1.442-1.89L91.19 5.207a6.408 6.408 0 0 1 8.395 0l86.509 74.558a6.315 6.315 0 0 1 1.442 1.89z" class="prefix__cls-2" data-name="Path 357" transform="translate(.529 .704)"/>
        <path id="prefix__Path_358" d="M98.192 39.959a6.45 6.45 0 0 0-8.01 0L68.17 57.581 3.785 109.089a6.334 6.334 0 0 0 3.893 1.359H180.7a6.334 6.334 0 0 0 3.893-1.359l-64.358-51.508z" class="prefix__cls-3" data-name="Path 358" transform="translate(1.73 77.676)"/>
        <path id="prefix__Path_359" d="M33.114 19.976a16.02 16.02 0 1 0 8.3 30.948l21.662-5.8-8.297-30.954z" data-name="Path 359" transform="translate(40.195 23.909)" style="fill:#ed1c24"/>
        <path id="prefix__Path_360" d="M40 67.02l54.494 5.3L76.248 4.234l-21.272 15.2.1.064-.1-.064-23.27 16.635z" data-name="Path 360" transform="translate(63.269 2.01)" style="fill:#2488ff"/>
        <path id="prefix__Path_361" d="M73.141 71.621a3.2 3.2 0 0 0 2.266-3.921l-.817-3.05L58.819 5.8A3.2 3.2 0 0 0 54.9 3.532l-9.292 2.49L63.85 74.107z" data-name="Path 361" transform="translate(93.905 .222)" style="fill:#005ece"/>
        <path id="prefix__Path_362" d="M43.944 56.7a6.408 6.408 0 0 0 4.537-7.847l-6.636-24.765-12.38 3.319L36.1 52.165a6.408 6.408 0 0 0 7.844 4.535z" data-name="Path 362" transform="translate(58.33 45.769)" style="fill:#58595b"/>
        <path id="prefix__Path_363" d="M74.83 27.985l-12.057 9.66v60.877a25.536 25.536 0 0 1-8.392 18.93l18.693 14.956a6.408 6.408 0 0 0 2.515-5.05V30.981a6.443 6.443 0 0 0-.759-3z" class="prefix__cls-8" data-name="Path 363" transform="translate(113.244 54.358)"/>
        <path id="prefix__Path_364" d="M3 58v3.2a6.408 6.408 0 0 0 2.515 5.05L15.832 58z" class="prefix__cls-8" data-name="Path 364" transform="translate(0 120.512)"/>
        <path id="prefix__Path_365" d="M69.044 35.575a6.292 6.292 0 0 0-1.439-1.887L57 24.547v20.676z" data-name="Path 365" transform="translate(119.017 46.78)" style="fill:#ffd422"/>
        <path id="prefix__Path_366" d="M57 37.633l12.047-9.641L57 37.627z" class="prefix__cls-2" data-name="Path 366" transform="translate(119.017 54.367)"/>
        <path id="prefix__Path_367" d="M148.655 62.613H14.1L3.785 70.867a6.334 6.334 0 0 0 3.893 1.359H180.7a6.334 6.334 0 0 0 3.893-1.359L165.9 55.907a25.514 25.514 0 0 1-17.244 6.706z" class="prefix__cls-3" data-name="Path 367" transform="translate(1.73 115.899)"/>
        <path id="prefix__Path_368" d="M40.13 74.261L94.182 31z" class="prefix__cls-1" data-name="Path 368" transform="translate(81.835 60.996)"/>
        <path id="prefix__Path_369" d="M3.24 27.992l66.131 52.9L3.243 27.989z" class="prefix__cls-1" data-name="Path 369" transform="translate(.529 54.367)"/>
        <path id="prefix__Path_370" d="M91.095 39.959a6.45 6.45 0 0 0-8.01 0L61.073 57.581 7.005 100.836h134.553a25.516 25.516 0 0 0 17.247-6.709l-45.667-36.546z" class="prefix__cls-8" data-name="Path 370" transform="translate(8.827 77.676)"/>
        <g id="prefix__Group_29" data-name="Group 29" transform="translate(163.336 3.322)">
            <path id="prefix__Path_371" d="M55.291 18.1a3.2 3.2 0 0 0 3.1 2.377 3.114 3.114 0 0 0 .83-.112L71.6 17.053a3.2 3.2 0 0 0-1.66-6.19l-12.38 3.319a3.2 3.2 0 0 0-2.269 3.918z" class="prefix__cls-10" data-name="Path 371" transform="translate(-48.326 13.055)"/>
            <path id="prefix__Path_372" d="M56.246 18.791a3.2 3.2 0 0 0 2.268-.939l9.061-9.061a3.2 3.2 0 1 0-4.531-4.531l-9.064 9.062a3.2 3.2 0 0 0 2.265 5.469z" class="prefix__cls-10" data-name="Path 372" transform="translate(-53.042 -3.322)"/>
            <path id="prefix__Path_373" d="M56.258 20.116a3.2 3.2 0 0 0 2.265 3.925L70.9 27.357a3.114 3.114 0 0 0 .83.112 3.2 3.2 0 0 0 .83-6.3L60.18 17.85a3.2 3.2 0 0 0-3.925 2.265z" class="prefix__cls-10" data-name="Path 373" transform="translate(-46.198 28.457)"/>
        </g>
    </g>
</svg>
