<svg xmlns="http://www.w3.org/2000/svg" width="99" height="146.875" viewBox="0 0 99 146.875">
    <defs>
        <style>
            .prefix__cls-3{fill:#f0a479}.prefix__cls-4{fill:#e59770}.prefix__cls-6{fill:#d8dce5}.prefix__cls-8{fill:#ed3a3a}
        </style>
    </defs>
    <g id="prefix__employee" transform="translate(-83.447)">
        <path id="prefix__Path_450" d="M194.007 8a24.513 24.513 0 0 0-24.513 24.513v9.912a7.814 7.814 0 0 1 6.244-2.04v-1.222a1.671 1.671 0 0 1 1.79-1.665 43.887 43.887 0 0 0 26.416-7.1 1.669 1.669 0 0 1 2.135.26c6.235 6.7 6.2 6.442 6.2 7.318v2.4a7.416 7.416 0 0 1 6.243 1.826v-9.688A24.512 24.512 0 0 0 194.007 8z" data-name="Path 450" transform="translate(-61.363 -5.705)" style="fill:#707487"/>
        <path id="prefix__Path_451" d="M175.232 32.514a24.512 24.512 0 0 1 21.644-24.341 24.477 24.477 0 0 0-27.382 24.34v9.912a7.862 7.862 0 0 1 5.738-2.087v-7.824z" data-name="Path 451" transform="translate(-61.363 -5.705)" style="fill:#5b5d6e"/>
        <path id="prefix__Path_452" d="M318.491 117.546v13.481c0 .146-.008.29-.011.436a7.1 7.1 0 1 0 .011-13.917z" class="prefix__cls-3" data-name="Path 452" transform="translate(-167.61 -83.759)"/>
        <path id="prefix__Path_453" d="M324.273 118.966a7.507 7.507 0 0 0-5.782-1.421v13.481c0 .146-.008.29-.011.436a7.5 7.5 0 0 0 5.793-1.42v-11.075z" class="prefix__cls-4" data-name="Path 453" transform="translate(-167.61 -83.759)"/>
        <path id="prefix__Path_454" d="M170.277 131.089V117.58c-4.164-.556-8.517 2.639-8.517 6.971a7.169 7.169 0 0 0 8.528 6.975c-.003-.146-.011-.291-.011-.437z" class="prefix__cls-3" data-name="Path 454" transform="translate(-55.848 -83.805)"/>
        <path id="prefix__Path_455" d="M170.277 130.151a7 7 0 0 1-2.78-5.6 6.8 6.8 0 0 1 2.78-5.38v-1.591c-4.164-.556-8.517 2.64-8.517 6.971a7.169 7.169 0 0 0 8.528 6.975c0-.146-.011-.291-.011-.437z" class="prefix__cls-4" data-name="Path 455" transform="translate(-55.848 -83.806)"/>
        <path id="prefix__Path_456" d="M230.283 216.562A18.906 18.906 0 0 1 220 213.655V223.7l10.243 12.643 10.239-12.643v-10.316a17.9 17.9 0 0 1-10.199 3.178z" class="prefix__cls-3" data-name="Path 456" transform="translate(-97.378 -152.171)"/>
        <path id="prefix__Path_457" d="M225.845 216.752a18.268 18.268 0 0 1-5.845-2.421v10.043l5.849 7.22v-14.842z" class="prefix__cls-4" data-name="Path 457" transform="translate(-97.378 -152.847)"/>
        <path id="prefix__Path_458" d="M175.372 256.833l-27.1-10.494-10.243 12.643-10.243-12.643-27.066 10.494s-10.02 4.12-10.02 15.545V317.2a3.34 3.34 0 0 0 3.34 3.34h88.017a3.34 3.34 0 0 0 3.34-3.34v-44.822c-.003-11.425-10.025-15.545-10.025-15.545z" data-name="Path 458" transform="translate(-5.171 -175.673)" style="fill:#e4eaf8"/>
        <path id="prefix__Path_459" d="M96.416 341.459v-47.977a16.534 16.534 0 0 1 6.2-13.126l-1.9.736S90.7 285.212 90.7 296.637v44.821a3.34 3.34 0 0 0 3.34 3.34h5.718a3.34 3.34 0 0 1-3.342-3.339z" class="prefix__cls-6" data-name="Path 459" transform="translate(-5.171 -199.931)"/>
        <path id="prefix__Path_460" d="M221.6 82.682a1.67 1.67 0 0 0-2.135-.26 43.886 43.886 0 0 1-26.416 7.095 1.67 1.67 0 0 0-1.79 1.665v14.645a18.271 18.271 0 0 0 36.539 0V90c.002-.876.04-.617-6.198-7.318z" class="prefix__cls-3" data-name="Path 460" transform="translate(-76.886 -58.583)"/>
        <path id="prefix__Path_461" d="M197 124.128v-16.237a38 38 0 0 1-3.947-.073 1.67 1.67 0 0 0-1.79 1.665v14.645a18.491 18.491 0 0 0 21.137 17.817 18.035 18.035 0 0 1-15.4-17.817z" class="prefix__cls-4" data-name="Path 461" transform="translate(-76.886 -76.885)"/>
        <g id="prefix__Group_36" data-name="Group 36" transform="translate(112.848 70.666)">
            <path id="prefix__Path_462" d="M268.071 265.479l7.66-15.351-9.784-3.789-10.247 12.643 9.986 7.092a1.615 1.615 0 0 0 2.385-.595z" class="prefix__cls-6" data-name="Path 462" transform="translate(-235.691 -246.339)"/>
            <path id="prefix__Path_463" d="M193.6 265.479l-7.66-15.351 9.784-3.789 10.243 12.643-9.986 7.092a1.615 1.615 0 0 1-2.381-.595z" class="prefix__cls-6" data-name="Path 463" transform="translate(-185.938 -246.339)"/>
        </g>
        <path id="prefix__Path_464" d="M240.217 365.024l-6.574-38.913h-7.673l-6.57 38.913a1.692 1.692 0 0 0 .391 1.356l9.076 10a1.273 1.273 0 0 0 1.886 0l9.076-10a1.694 1.694 0 0 0 .388-1.356z" data-name="Path 464" transform="translate(-96.938 -232.561)" style="fill:#ff5050"/>
        <g id="prefix__Group_37" data-name="Group 37" transform="translate(122.441 83.31)">
            <path id="prefix__Path_465" d="M237.661 290.423v-.009h-.012v.009l-7.263 5.159 3.433 5.167h7.673l3.433-5.167z" class="prefix__cls-8" data-name="Path 465" transform="translate(-227.228 -290.414)"/>
            <path id="prefix__Path_466" d="M225.524 366.38a1.692 1.692 0 0 1-.391-1.356l6.574-38.913h-5.738l-6.569 38.913a1.691 1.691 0 0 0 .391 1.356l9.076 10a1.273 1.273 0 0 0 1.886 0l1.926-2.123z" class="prefix__cls-8" data-name="Path 466" transform="translate(-219.378 -315.871)"/>
        </g>
        <path id="prefix__Path_467" d="M240.523 292.455l-2.863-2.033v-.009h-.012v.009l-7.264 5.158 3.434 5.167h5.738l-2.974-4.476a.856.856 0 0 1 .217-1.172z" data-name="Path 467" transform="translate(-104.786 -207.103)" style="fill:#db2a2a"/>
        <path id="prefix__Path_468" d="M180.294 113.267a2.152 2.152 0 0 0 2.151-2.151V96.562c0-12.721-10.892-17.345-11.356-17.536l-.041-.016-25.723-9.962v-6.032a20.159 20.159 0 0 0 7.629-13.261 9.313 9.313 0 0 0 5.471-2.232 9.134 9.134 0 0 0 .953-12.889v-7.97a26.665 26.665 0 1 0-53.33 0v8.179a8.639 8.639 0 0 0-2.218 5.759 9.117 9.117 0 0 0 3.17 6.922 9.308 9.308 0 0 0 5.468 2.23 19.946 19.946 0 0 0 8.066 13.58v5.714L94.843 79.01l-.04.016c-.464.191-11.356 4.815-11.356 17.536v44.821a5.5 5.5 0 0 0 5.491 5.491h20.5a2.151 2.151 0 1 0 0-4.3h-4.629V100.2a2.151 2.151 0 0 0-4.3 0v42.37H88.938a1.189 1.189 0 0 1-1.188-1.188v-44.82a14.908 14.908 0 0 1 8.676-13.55l15.443-5.987 6.785 13.6a3.767 3.767 0 0 0 3.372 2.086 4.876 4.876 0 0 0 3.08-1.336l1.733 2.609-6.432 38c0 .022-.007.043-.01.065a3.858 3.858 0 0 0 .931 3.1l6.754 7.43h-8.6a2.151 2.151 0 1 0 0 4.3h57.478a5.5 5.5 0 0 0 5.491-5.491v-20.232a2.151 2.151 0 1 0-4.3 0v20.228a1.189 1.189 0 0 1-1.188 1.188h-11.572V100.2a2.151 2.151 0 1 0-4.3 0v42.37H137.8l6.754-7.43a3.857 3.857 0 0 0 .931-3.094c0-.022-.006-.044-.01-.065l-6.433-38 1.733-2.609a4.88 4.88 0 0 0 3.08 1.336 3.768 3.768 0 0 0 3.372-2.085l6.784-13.6 15.455 5.985a14.908 14.908 0 0 1 8.678 13.551v14.553a2.152 2.152 0 0 0 2.15 2.155zm-24.673-69.006a5.011 5.011 0 0 1-2.485 1.144V35.8a4.845 4.845 0 0 1 2.485 8.46zm-45.268-17.6a22.361 22.361 0 1 1 44.723 0v5.176a9.565 9.565 0 0 0-1.94-.375c0-2.076.018-1.676-6.773-8.977a3.828 3.828 0 0 0-4.887-.6 41.481 41.481 0 0 1-25.076 6.759 3.826 3.826 0 0 0-3.989 2.882 10.637 10.637 0 0 0-2.056.463v-5.324zM108.135 40.6a5.11 5.11 0 0 1 4.16-4.693v9.5a4.861 4.861 0 0 1-4.16-4.807zm8.463 6.5V32.969a45.977 45.977 0 0 0 26.891-7.253c3.115 3.344 4.8 5.1 5.345 5.766V47.1a16.12 16.12 0 0 1-32.236 0zm16.379 20.16a20.2 20.2 0 0 0 8.047-1.677v4.179l-8.084 9.979-8.1-10v-4.024a21.83 21.83 0 0 0 8.136 1.542zM115.9 75.466l6.108-2.366 7.815 9.646-7.6 5.4zm17.04 66.053l-8.246-9.072 6.228-36.794h4.036l6.228 36.794zm2.682-50.169h-5.365l-1.64-2.469 4.323-3.07 4.323 3.07zm8.032-3.207l-7.607-5.4 7.813-9.643 6.119 2.37z" data-name="Path 468"/>
    </g>
</svg>
