<svg xmlns="http://www.w3.org/2000/svg" width="80" height="80" viewBox="0 0 80 80">
    <defs>
        <style>
            .prefix__cls-2{fill:#4acaea}
        </style>
    </defs>
    <g id="prefix__Group_74" data-name="Group 74" transform="translate(-1399 -502)">
        <circle id="prefix__Ellipse_8" cx="40" cy="40" r="40" data-name="Ellipse 8" transform="translate(1399 502)" style="fill:#fff"/>
        <g id="prefix__envelope" transform="translate(1417 461)">
            <g id="prefix__Group_33" data-name="Group 33" transform="translate(0 64)">
                <g id="prefix__Group_32" data-name="Group 32">
                    <path id="prefix__Path_397" d="M7.243 66.722c6.139 5.2 16.912 14.347 20.078 17.2a1.87 1.87 0 0 0 2.706 0c3.169-2.855 13.942-12 20.081-17.2a.931.931 0 0 0 .131-1.286A3.7 3.7 0 0 0 47.315 64H10.037a3.7 3.7 0 0 0-2.925 1.436.931.931 0 0 0 .131 1.286z" class="prefix__cls-2" data-name="Path 397" transform="translate(-6.31 -64)"/>
                    <path id="prefix__Path_398" d="M352.975 126.5a.928.928 0 0 0-.994.135c-4.021 3.408-9.318 7.911-13.314 11.348a.931.931 0 0 0 .025 1.433c3.712 2.973 9.307 7.063 13.346 9.97a.932.932 0 0 0 1.476-.756v-21.286a.932.932 0 0 0-.539-.844z" class="prefix__cls-2" data-name="Path 398" transform="translate(-308.783 -120.959)"/>
                    <path id="prefix__Path_399" d="M1.476 149.393c4.041-2.907 9.636-7 13.347-9.97a.931.931 0 0 0 .026-1.433c-4-3.436-9.294-7.94-13.315-11.348a.932.932 0 0 0-1.534.71v21.284a.932.932 0 0 0 1.476.756z" class="prefix__cls-2" data-name="Path 399" transform="translate(0 -120.967)"/>
                    <path id="prefix__Path_400" d="M51.461 296.3c-3.9-2.791-11.089-8-15.379-11.477a.934.934 0 0 0-1.2.021c-.842.734-1.546 1.353-2.046 1.8a3.774 3.774 0 0 1-5.2 0c-.5-.449-1.2-1.069-2.044-1.8a.928.928 0 0 0-1.2-.021c-4.276 3.47-11.471 8.68-15.379 11.477a.932.932 0 0 0-.14 1.392 3.734 3.734 0 0 0 2.725 1.2h37.277a3.739 3.739 0 0 0 2.726-1.2.932.932 0 0 0-.14-1.392z" class="prefix__cls-2" data-name="Path 400" transform="translate(-7.87 -265.341)"/>
                </g>
            </g>
        </g>
    </g>
</svg>
