<svg xmlns="http://www.w3.org/2000/svg" width="242" height="242" viewBox="0 0 242 242">
    <g id="prefix__Group_69" data-name="Group 69" transform="translate(-418 -566)">
        <g id="prefix__Ellipse_12" data-name="Ellipse 12" transform="translate(418 566)" style="fill:#fff;stroke:#707070">
            <circle cx="121" cy="121" r="121" style="stroke:none"/>
            <circle cx="121" cy="121" r="120.5" style="fill:none"/>
        </g>
        <g id="prefix__heart" transform="translate(448 563.6)">
            <g id="prefix__Group_47" data-name="Group 47" transform="translate(0 56.4)">
                <path id="prefix__Path_504" d="M179.869 120.589h-15.482c6.436-14.612 5.74-26.441 3.305-34.443-4.175-14.264-18.265-29.746-39.14-29.746a48.936 48.936 0 0 0-16.874 3.131A87.518 87.518 0 0 0 92.2 69.273a83.519 83.519 0 0 0-19.483-9.741A49.684 49.684 0 0 0 55.839 56.4c-20.875 0-34.965 15.482-39.14 29.746-2.435 8.524-3.305 21.4 4.871 37.574H2.783a2.783 2.783 0 0 0 0 5.567h22.092a36.722 36.722 0 0 0 3.131 4.7c18.091 26.093 57.4 54.448 64.537 56.187v.174a.539.539 0 0 0 .348-.174h.522V190c6.088-2.957 43.837-27.311 63.667-56.187a64 64 0 0 0 4.871-7.828h18.265A2.748 2.748 0 0 0 183 123.2c0-1.567-1.566-2.611-3.131-2.611zm-27.833 10.263c-18.439 26.963-52.36 48.707-59.666 53.4-7.48-4.7-41.227-26.615-59.84-53.4l-1.044-1.566h25.571a2.87 2.87 0 0 0 2.609-1.566l11.655-22.962 18.265 46.794a2.849 2.849 0 0 0 2.609 1.74h.174a2.77 2.77 0 0 0 2.609-2.087l16-54.8 8.524 27.659a2.836 2.836 0 0 0 2.261 1.914 3.012 3.012 0 0 0 2.783-1.218l6.784-9.915 5.74 9.741a2.776 2.776 0 0 0 2.435 1.392h15.656c-1.037 1.743-2.081 3.309-3.125 4.874zm6.262-10.263h-17.047l-7.132-12.177a2.776 2.776 0 0 0-2.435-1.392 2.632 2.632 0 0 0-2.435 1.218l-5.914 8.7-9.569-31.138a3.227 3.227 0 0 0-2.783-2.087A2.977 2.977 0 0 0 108.2 85.8l-16.178 55.838-17.57-44.881a2.616 2.616 0 0 0-2.435-1.74 2.7 2.7 0 0 0-2.609 1.566l-13.743 26.963H28.007c-6.958-12.7-8.872-24.875-5.74-35.835 3.652-12.35 15.655-25.571 33.746-25.571a46.275 46.275 0 0 1 14.96 2.783 84.567 84.567 0 0 1 19.657 10.09 2.646 2.646 0 0 0 3.479 0s6.784-5.393 19.657-10.089a42.054 42.054 0 0 1 14.96-2.783c17.917 0 30.094 13.221 33.747 25.571 2.958 10.088 1.392 21.222-4.173 32.877z" data-name="Path 504" transform="translate(0 -56.4)" style="fill:#fbb811"/>
            </g>
        </g>
    </g>
</svg>
