<svg xmlns="http://www.w3.org/2000/svg" width="242" height="242" viewBox="0 0 242 242">
    <defs>
        <style>
            .prefix__cls-2{fill:#2f93d0}
        </style>
    </defs>
    <g id="prefix__Group_71" data-name="Group 71" transform="translate(-1206 -566)">
        <g id="prefix__Ellipse_14" data-name="Ellipse 14" transform="translate(1206 566)" style="fill:#fff;stroke:#707070">
            <circle cx="121" cy="121" r="121" style="stroke:none"/>
            <circle cx="121" cy="121" r="120.5" style="fill:none"/>
        </g>
        <g id="prefix__life-insurance" transform="translate(1246.756 603.275)">
            <path id="prefix__Path_510" d="M135.711 119.125a2.426 2.426 0 0 0-1.694-2.261c-8.542-2.7-14.932-5.278-17.98-6.572a2.433 2.433 0 0 0-1.9 0c-3.05 1.295-9.443 3.871-17.98 6.572a2.417 2.417 0 0 0-1.547 1.483 37.925 37.925 0 0 0-4.536-1.643 19.089 19.089 0 0 0-8.288-34.747V52.408A15.151 15.151 0 0 1 94.5 67.334a2.426 2.426 0 0 0 4.852 0 15.135 15.135 0 1 1 30.267-.38 2.428 2.428 0 0 0 2.423 2.357h.054a2.428 2.428 0 0 0 2.374-2.468 55.114 55.114 0 1 0-110.227 0 2.428 2.428 0 0 0 2.382 2.468h.053a2.428 2.428 0 0 0 2.422-2.357 15.134 15.134 0 0 1 30.17-1.3 1.819 1.819 0 0 0 .019.229 11.784 11.784 0 0 1 .079 1.452 2.426 2.426 0 0 0 4.852 0 15.151 15.151 0 0 1 12.717-14.927v29.55a19.089 19.089 0 0 0-8.3 34.74 38.213 38.213 0 0 0-27.424 36.6 2.428 2.428 0 0 0 2.426 2.426h71.451a2.475 2.475 0 0 0 .463-.047 1.926 1.926 0 0 0 .186-.053c.073-.021.148-.035.22-.061.019-.008.039-.018.058-.025l.032-.014c9.19-3.559 15.275-10.953 18.081-22a54.984 54.984 0 0 0 1.582-14.4zm-8.77-67.482a20.038 20.038 0 0 0-28.047 3.215C97.949 43.93 95.123 27.6 86.779 18.083a50.7 50.7 0 0 1 40.161 33.561zm-82.71-4.3a19.938 19.938 0 0 0-12.447 4.3 50.7 50.7 0 0 1 40.161-33.56c-8.333 9.507-11.164 25.807-12.112 36.74a19.935 19.935 0 0 0-15.6-7.48zm20.619 6.26c1.194-11.931 4.633-29.153 14.513-35.676 9.878 6.527 13.319 23.749 14.513 35.678a19.953 19.953 0 0 0-29.026 0zm.25 47.297a14.258 14.258 0 1 1 14.257 14.255A14.258 14.258 0 0 1 65.1 100.9zM79.362 120a33.309 33.309 0 0 1 15.192 3.678 52.838 52.838 0 0 0 1.492 9.843c1.9 7.473 5.307 13.272 10.155 17.348H46.149A33.344 33.344 0 0 1 79.362 120zm50.064 12.329c-2.314 9.1-7.136 15.271-14.338 18.353-7.209-3.082-12.026-9.251-14.338-18.353a50.032 50.032 0 0 1-1.438-11.385c7.109-2.308 12.616-4.477 15.776-5.791 3.157 1.313 8.664 3.481 15.776 5.791a50.049 50.049 0 0 1-1.438 11.385z" class="prefix__cls-2" data-name="Path 510"/>
            <path id="prefix__Path_511" d="M87.281 98.4a2.426 2.426 0 0 0-3.466 3.39l4.5 4.611a2.425 2.425 0 0 0 3.468 0l9.027-9.221a2.426 2.426 0 1 0-3.466-3.4l-7.291 7.448z" class="prefix__cls-2" data-name="Path 511" transform="translate(22.778 31.427)"/>
        </g>
    </g>
</svg>
