<svg xmlns="http://www.w3.org/2000/svg" width="100" height="109.257" viewBox="0 0 100 109.257">
    <defs>
        <style>
            .prefix__cls-2{fill:#bf0404}.prefix__cls-3{fill:#d62121}.prefix__cls-5{fill:#4dc9eb}.prefix__cls-6{fill:#f9b813}.prefix__cls-7{fill:#fbd479}.prefix__cls-8{fill:#248471}.prefix__cls-9{fill:#2f94d2}
        </style>
    </defs>
    <g id="prefix__Group_14" data-name="Group 14" transform="translate(-139 -32.743)">
        <g id="prefix__Group_10" data-name="Group 10" transform="translate(162.592 32.743)">
            <path id="prefix__Path_145" d="M451.683 182.751l-16.008-16.008H467.7z" data-name="Path 145" transform="translate(-421.141 -166.743)" style="fill:#f73737"/>
            <path id="prefix__Path_146" d="M537.446 166.743v22.716l-4.742 4.563-11.271-11.271z" class="prefix__cls-2" data-name="Path 146" transform="translate(-490.893 -166.743)"/>
            <path id="prefix__Path_147" d="M435.675 166.743V189.3l4.742 4.719 11.266-11.271z" class="prefix__cls-2" data-name="Path 147" transform="translate(-421.141 -166.743)"/>
            <path id="prefix__Path_148" d="M472.343 252.5l11.271 11.271-11.269 11.353-11.269-11.353z" class="prefix__cls-3" data-name="Path 148" transform="translate(-441.802 -236.494)"/>
            <path id="prefix__Path_149" d="M472.343 372.043l11.271 11.271-11.548 11.543-10.989-11.543z" data-name="Path 149" transform="translate(-441.802 -333.722)" style="fill:#35a793"/>
            <path id="prefix__Path_150" d="M485.916 492.159l8.07 8.2-8.353 8.472-7.868-8.47z" class="prefix__cls-5" data-name="Path 150" transform="translate(-455.375 -431.416)"/>
            <path id="prefix__Path_151" d="M532.712 313.326l11.271 11.274-11.1 11.1-11.436-11.1z" class="prefix__cls-6" data-name="Path 151" transform="translate(-490.902 -285.965)"/>
            <path id="prefix__Path_152" d="M411.976 312.883l11.269 11.354-11.1 11.1-11.436-11.1z" class="prefix__cls-7" data-name="Path 152" transform="translate(-392.702 -285.605)"/>
            <path id="prefix__Path_153" d="M586.556 297.743v-9.3L581.815 293z" class="prefix__cls-3" data-name="Path 153" transform="translate(-540.003 -265.723)"/>
            <path id="prefix__Path_154" d="M586.556 417.536v-9.3l-4.742 4.485z" class="prefix__cls-7" data-name="Path 154" transform="translate(-540.003 -363.155)"/>
            <path id="prefix__Path_155" d="M572.61 509.5v-16.4l-7.942 8.023z" class="prefix__cls-8" data-name="Path 155" transform="translate(-526.057 -432.18)"/>
            <path id="prefix__Path_156" d="M435.675 287.6v9.557l4.742-4.838z" class="prefix__cls-7" data-name="Path 156" transform="translate(-421.142 -265.041)"/>
            <path id="prefix__Path_157" d="M433.465 492.422l-.049 16.523 8.278-8.372z" class="prefix__cls-9" data-name="Path 157" transform="translate(-419.305 -431.63)"/>
            <path id="prefix__Path_158" d="M520.029 544.454h16.291l-7.958-8.374z" class="prefix__cls-5" data-name="Path 158" transform="translate(-489.75 -467.139)"/>
            <path id="prefix__Path_159" d="M433.416 544.464h16.167l-7.889-8.372z" class="prefix__cls-5" data-name="Path 159" transform="translate(-419.305 -467.148)"/>
            <path id="prefix__Path_160" d="M366.035 372.571l11.224 11.309-8.159 8.18-11.284-11.36z" class="prefix__cls-6" data-name="Path 160" transform="translate(-357.816 -334.15)"/>
            <path id="prefix__Path_161" d="M441.909 452.369l8.151-8.2-11.1-11.014-5.281 5.3v5.764z" class="prefix__cls-9" data-name="Path 161" transform="translate(-419.519 -383.426)"/>
            <path id="prefix__Path_162" d="M532.7 432.257l8.174 8.089-11.374 11.291-8.07-8.2z" class="prefix__cls-8" data-name="Path 162" transform="translate(-490.893 -382.695)"/>
        </g>
        <text id="prefix___INVICTUS" data-name="INVICTUS" transform="translate(189 129.641)" style="font-size:17px;font-family:Arial-Black,Arial;font-weight:800;fill:#fff">
            <tspan x="-49.112" y="0">INVICTUS</tspan>
        </text>
        <text id="prefix__Design___Engineering___Solutions" data-name="Design . Engineering . Solutions" transform="translate(192 140)" style="font-size:6.5px;font-family:SegoeUI,Segoe UI;fill:#fff">
            <tspan x="-45.229" y="0">Design . Engineering . Solutions</tspan>
        </text>
    </g>
</svg>
