<svg xmlns="http://www.w3.org/2000/svg" width="384" height="480.316" viewBox="0 0 384 480.316">
    <defs>
        <style>
            .prefix__cls-2{fill:#ffcd00}.prefix__cls-3{fill:#ffde55}.prefix__cls-4{fill:#ddb200}.prefix__cls-9{fill:#ebbf00}.prefix__cls-11{fill:#ff5023}
        </style>
    </defs>
    <g id="prefix__Group_82" data-name="Group 82" transform="translate(-1393 -330)">
        <g id="prefix__Group_81" data-name="Group 81">
            <g id="prefix__Group_80" data-name="Group 80" transform="translate(26 10)">
                <circle id="prefix__Ellipse_23" cx="192" cy="192" r="192" data-name="Ellipse 23" transform="translate(1367 320)" style="fill:#f5f5f5"/>
            </g>
        </g>
        <g id="prefix__Email_maketing" data-name="Email maketing" transform="translate(1390 431.678)">
            <path id="prefix__Path_355" d="M40.13 135.45l130.695 104.608a13.014 13.014 0 0 0 5.108-10.255V34.069a13.086 13.086 0 0 0-1.542-6.084z" class="prefix__cls-2" data-name="Path 355" transform="translate(204.478 135.821)"/>
            <path id="prefix__Path_356" d="M4.542 27.985A13.086 13.086 0 0 0 3 34.069V229.8a13.014 13.014 0 0 0 5.108 10.255l130.76-104.605z" class="prefix__cls-2" data-name="Path 356" transform="translate(0 135.821)"/>
            <path id="prefix__Path_357" d="M377.528 162.081L243.287 269.513l-44.769-35.789a13.1 13.1 0 0 0-16.268 0l-44.7 35.789L3.24 162.081a12.826 12.826 0 0 1 2.928-3.839L181.86 6.822a13.014 13.014 0 0 1 17.049 0L374.6 158.242a12.825 12.825 0 0 1 2.928 3.839z" class="prefix__cls-3" data-name="Path 357" transform="translate(1.322 1.758)"/>
            <path id="prefix__Path_358" d="M195.516 41.4a13.1 13.1 0 0 0-16.268 0l-44.7 35.789L3.785 181.793a12.865 12.865 0 0 0 7.906 2.759h351.383a12.865 12.865 0 0 0 7.906-2.759L240.285 77.185z" class="prefix__cls-4" data-name="Path 358" transform="translate(4.323 194.086)"/>
            <path id="prefix__Path_359" d="M45.357 25.961A32.535 32.535 0 1 0 62.2 88.813l44-11.784L89.358 14.17z" data-name="Path 359" transform="translate(100.434 59.741)" style="fill:#ed1c24"/>
            <path id="prefix__Path_360" d="M48.546 131.747l110.673 10.763L122.168 4.234 78.967 35.11l.007.007.2.13-.2-.13-.007-.007-47.261 33.778z" data-name="Path 360" transform="translate(158.087 5.022)" style="fill:#2488ff"/>
            <path id="prefix__Path_361" d="M101.528 141.927a6.507 6.507 0 0 0 4.6-7.971l-1.659-6.195L72.441 8.246a6.507 6.507 0 0 0-7.965-4.6L45.606 8.7l37.051 138.277z" data-name="Path 361" transform="translate(234.635 .555)" style="fill:#005ece"/>
            <path id="prefix__Path_362" d="M58.871 90.311a13.014 13.014 0 0 0 9.214-15.936L54.608 24.088l-25.143 6.741L42.941 81.11a13.014 13.014 0 0 0 15.93 9.201z" data-name="Path 362" transform="translate(145.745 114.36)" style="fill:#58595b"/>
            <path id="prefix__Path_363" d="M95.911 27.985L71.425 47.6v123.639a51.861 51.861 0 0 1-17.044 38.445l37.964 30.374a13.014 13.014 0 0 0 5.108-10.258V34.069a13.086 13.086 0 0 0-1.542-6.084z" class="prefix__cls-9" data-name="Path 363" transform="translate(282.958 135.821)"/>
            <path id="prefix__Path_364" d="M3 58v6.507a13.014 13.014 0 0 0 5.108 10.255L29.061 58z" class="prefix__cls-9" data-name="Path 364" transform="translate(0 301.117)"/>
            <path id="prefix__Path_365" d="M81.46 46.944a12.779 12.779 0 0 0-2.922-3.833L57 24.547v41.99z" data-name="Path 365" transform="translate(297.383 116.888)" style="fill:#ffd422"/>
            <path id="prefix__Path_366" d="M57 47.575L81.467 28l-.007-.006L57 47.562z" class="prefix__cls-3" data-name="Path 366" transform="translate(297.383 135.843)"/>
            <path id="prefix__Path_367" d="M298 69.526H24.738L3.785 86.289a12.865 12.865 0 0 0 7.906 2.759h351.383a12.865 12.865 0 0 0 7.906-2.759l-37.956-30.382A51.816 51.816 0 0 1 298 69.526z" class="prefix__cls-4" data-name="Path 367" transform="translate(4.323 289.59)"/>
            <path id="prefix__Path_368" d="M40.13 118.862L149.9 31.01V31z" class="prefix__cls-2" data-name="Path 368" transform="translate(204.478 152.409)"/>
            <path id="prefix__Path_369" d="M3.24 28l134.306 107.428L3.247 27.989z" class="prefix__cls-2" data-name="Path 369" transform="translate(1.322 135.843)"/>
            <path id="prefix__Path_370" d="M177.784 41.4a13.1 13.1 0 0 0-16.268 0l-44.7 35.789L7.005 165.031H280.27a51.821 51.821 0 0 0 35.03-13.625l-92.748-74.221z" class="prefix__cls-9" data-name="Path 370" transform="translate(22.056 194.086)"/>
            <g id="prefix__Group_29" data-name="Group 29" transform="translate(328.629 3.322)">
                <path id="prefix__Path_371" d="M55.4 25.682a6.507 6.507 0 0 0 6.286 4.828 6.325 6.325 0 0 0 1.685-.228l25.143-6.735a6.508 6.508 0 0 0-3.371-12.572L60 17.718a6.507 6.507 0 0 0-4.6 7.965z" class="prefix__cls-11" data-name="Path 371" transform="translate(-41.259 37.599)"/>
                <path id="prefix__Path_372" d="M59.548 34.738a6.507 6.507 0 0 0 4.607-1.907l18.4-18.4a6.507 6.507 0 1 0-9.2-9.2l-18.408 18.4a6.507 6.507 0 0 0 4.6 11.108z" class="prefix__cls-11" data-name="Path 372" transform="translate(-53.042 -3.322)"/>
                <path id="prefix__Path_373" d="M56.371 22.565a6.507 6.507 0 0 0 4.6 7.971l25.143 6.735a6.325 6.325 0 0 0 1.686.229 6.507 6.507 0 0 0 1.685-12.793l-25.142-6.743a6.507 6.507 0 0 0-7.971 4.6z" class="prefix__cls-11" data-name="Path 373" transform="translate(-35.94 76.083)"/>
            </g>
        </g>
    </g>
</svg>
