<svg xmlns="http://www.w3.org/2000/svg" width="30" height="22.5" viewBox="0 0 30 22.5">
    <defs>
        <style>
            .prefix__cls-1{fill:#7b7b7b}
        </style>
    </defs>
    <g id="prefix__mail" transform="translate(0 -64)">
        <g id="prefix__Group_95" data-name="Group 95" transform="translate(0 64)">
            <g id="prefix__Group_94" data-name="Group 94">
                <path id="prefix__Path_569" d="M13.995 65.447l10.3 8.376a.571.571 0 0 0 .112.073.951.951 0 0 0 .431.1 1.012 1.012 0 0 0 .549-.182l10.288-8.372a.624.624 0 0 0-.037-1A2.485 2.485 0 0 0 34.207 64h-18.75a2.482 2.482 0 0 0-1.426.449.624.624 0 0 0-.037 1z" class="prefix__cls-1" data-name="Path 569" transform="translate(-12.957 -64)"/>
                <path id="prefix__Path_570" d="M19.841 123.692c.449-.425.858-.812 1.158-1.1a2.363 2.363 0 0 1 2.021-.63.625.625 0 0 0 .729-.616V114.2a.625.625 0 0 0-1.019-.485l-9.59 7.8-.109.073a2.183 2.183 0 0 1-2.421-.072l-9.592-7.8A.625.625 0 0 0 0 114.2v11.471a2.5 2.5 0 0 0 2.5 2.5h13.195a.625.625 0 0 0 .612-.5 2.245 2.245 0 0 1 .549-1.08c.7-.735 1.9-1.87 2.864-2.782z" class="prefix__cls-1" data-name="Path 570" transform="translate(0 -110.667)"/>
                <path id="prefix__Path_571" d="M311.14 286.524a6.879 6.879 0 0 0-6.235-6.663v-1.388a1.128 1.128 0 0 0-1.112-1.139 1.087 1.087 0 0 0-.762.315c-.331.324-.791.759-1.293 1.233-1 .951-2.142 2.03-2.8 2.729a1.111 1.111 0 0 0 0 1.446c.662.7 1.8 1.776 2.8 2.728.5.475.961.91 1.293 1.233a1.087 1.087 0 0 0 .762.315 1.128 1.128 0 0 0 1.112-1.139v-1.349c3.22.118 4.99 1.143 4.99 1.863a.624.624 0 0 0 .624.625.107.107 0 0 0 .024 0 .624.624 0 0 0 .624-.625.611.611 0 0 0-.027-.184z" class="prefix__cls-1" data-name="Path 571" transform="translate(-281.167 -264.833)"/>
            </g>
        </g>
    </g>
</svg>
