<svg xmlns="http://www.w3.org/2000/svg" width="220.5" height="196.843" viewBox="0 0 220.5 196.843">
    <defs>
        <style>
            .prefix__cls-1{fill:#44c868}.prefix__cls-2{fill:#4ce166}.prefix__cls-3{fill:#ffdb56}.prefix__cls-5{fill:#ffbb24}.prefix__cls-8{fill:#1ea4e9}
        </style>
    </defs>
    <g id="prefix__map" transform="translate(0 -27.465)">
        <g id="prefix__Group_22" data-name="Group 22" transform="translate(56.478 98.155)">
            <path id="prefix__Path_254" d="M426.8 313.95l-17.323-95.44a3.232 3.232 0 0 0-1.61-2.248l-43.6-24.251a3.225 3.225 0 0 0-1.823-.392l7.932 102.329-.266.119 52.181 23.41a3.236 3.236 0 0 0 4.51-3.526z" class="prefix__cls-1" data-name="Path 254" transform="translate(-262.828 -191.608)"/>
            <path id="prefix__Path_255" d="M184.914 215.193l-44.593-23.226a3.226 3.226 0 0 0-1.711-.353 3.341 3.341 0 0 1 .464 0l-7.932 102.329 52.447 23.529a3.242 3.242 0 0 0 1.325.284z" class="prefix__cls-1" data-name="Path 255" transform="translate(-131.142 -191.607)"/>
        </g>
        <g id="prefix__Group_23" data-name="Group 23" transform="translate(0 98.156)">
            <path id="prefix__Path_256" d="M64.41 191.62a3.228 3.228 0 0 0-1.823.392l-43.6 24.251a3.232 3.232 0 0 0-1.61 2.248L.052 313.951a3.236 3.236 0 0 0 4.51 3.527l51.9-23.282z" class="prefix__cls-2" data-name="Path 256" transform="translate(0 -191.61)"/>
            <path id="prefix__Path_257" d="M301.839 191.628a3.226 3.226 0 0 0-1.246.352L256 215.206v102.566a3.234 3.234 0 0 0 1.325-.284l52.447-23.529z" class="prefix__cls-2" data-name="Path 257" transform="translate(-145.75 -191.62)"/>
        </g>
        <path id="prefix__Path_258" d="M23.5 286.426l-3.519 19.388 52.108-27.522 1.21-15.607.2-2.588z" class="prefix__cls-3" data-name="Path 258" transform="translate(-11.377 -132.446)"/>
        <path id="prefix__Path_259" d="M61.183 288.294l-.469 6.052-52.108 27.522L.052 369a3.236 3.236 0 0 0 4.51 3.527l51.9-23.282 4.724-60.947z" data-name="Path 259" transform="translate(0 -148.499)" style="fill:#a8eefc"/>
        <g id="prefix__Group_24" data-name="Group 24" transform="translate(60.714 109.25)">
            <path id="prefix__Path_260" d="M190.526 266.98l-48.139-6.88-1.41 18.2 49.536 75.228v-27.363l-29.56-46.545 29.572 3.537z" class="prefix__cls-5" data-name="Path 260" transform="translate(-140.977 -241.696)"/>
            <path id="prefix__Path_261" d="M406.043 229.02L385.1 217.37 365.269 222l.248 3.2.979 12.633z" class="prefix__cls-5" data-name="Path 261" transform="translate(-268.674 -217.37)"/>
        </g>
        <path id="prefix__Path_262" d="M306.061 266.65l-1.878-24.224-1.108-14.3-47.045 20.653v16.177l30.73-13.363z" class="prefix__cls-3" data-name="Path 262" transform="translate(-145.767 -114.245)"/>
        <path id="prefix__Path_263" d="M430.031 355.676L425.68 331.7l-57.561-66.8 1.759 22.687 59.031 71.155a3.229 3.229 0 0 0 1.122-3.066z" class="prefix__cls-5" data-name="Path 263" transform="translate(-209.583 -135.179)"/>
        <path id="prefix__Path_264" d="M196.632 27.465A45.3 45.3 0 0 0 151.361 72.7c0 15.429 7.325 31.994 21.773 49.234a154.729 154.729 0 0 0 21.519 21.148 3.239 3.239 0 0 0 3.961 0 154.756 154.756 0 0 0 21.519-21.148C234.58 104.693 241.9 88.129 241.9 72.7a45.306 45.306 0 0 0-45.268-45.235zM213.4 72.7a16.766 16.766 0 1 1-16.766-16.752A16.759 16.759 0 0 1 213.4 72.7z" data-name="Path 264" transform="translate(-86.175)" style="fill:#ff4a4a"/>
        <path id="prefix__Path_265" d="M248.761 27.465a45.525 45.525 0 0 0-5.839.376A45.315 45.315 0 0 1 282.354 72.7c0 15.429-7.325 31.994-21.773 49.234a161.907 161.907 0 0 1-17.659 17.945c2.263 1.96 3.7 3.081 3.859 3.2a3.239 3.239 0 0 0 3.961 0 154.757 154.757 0 0 0 21.519-21.148c14.448-17.24 21.773-33.805 21.773-49.234a45.306 45.306 0 0 0-45.273-45.232z" data-name="Path 265" transform="translate(-138.304)" style="fill:#e7343f"/>
        <path id="prefix__Path_266" d="M257.326 443.812l19.5-8.749L256 413.507V444.1a3.229 3.229 0 0 0 1.326-.288z" class="prefix__cls-3" data-name="Path 266" transform="translate(-145.75 -219.787)"/>
        <g id="prefix__Group_25" data-name="Group 25" transform="translate(56.477 120.9)">
            <path id="prefix__Path_267" d="M412.707 248.578a3.232 3.232 0 0 0-1.61-2.248l-3.432-1.909-39.547 8.819 57.561 66.805z" class="prefix__cls-8" data-name="Path 267" transform="translate(-266.06 -244.42)"/>
            <path id="prefix__Path_268" d="M184.912 380.807v-3.233l-49.536-75.228L131.14 357l52.447 23.529a3.236 3.236 0 0 0 1.325.278z" class="prefix__cls-8" data-name="Path 268" transform="translate(-131.14 -277.399)"/>
        </g>
    </g>
</svg>
