<svg xmlns="http://www.w3.org/2000/svg" width="53.333" height="32" viewBox="0 0 53.333 32">
    <defs>
        <style>
            .prefix__cls-7{fill:#fff}.prefix__cls-8{fill:#dce5e5}
        </style>
    </defs>
    <g id="prefix__mastercard" transform="translate(0 -100.8)">
        <path id="prefix__Path_472" d="M233.6 116.8a16 16 0 1 1-32 0 16 16 0 1 1 32 0z" data-name="Path 472" transform="translate(-180.267)" style="fill:#ffb600"/>
        <path id="prefix__Path_473" d="M217.6 100.8a16.042 16.042 0 0 1 16 16 16 16 0 1 1-32 0" data-name="Path 473" transform="translate(-180.267)" style="fill:#f7981d"/>
        <path id="prefix__Path_474" d="M352.8 100.8a16.042 16.042 0 0 1 16 16 15.987 15.987 0 0 1-16 16" data-name="Path 474" transform="translate(-315.467)" style="fill:#ff8500"/>
        <path id="prefix__Path_475" d="M15.831 100.8a16 16 0 0 0 .169 32 16.186 16.186 0 0 0 10.751-4.148 15.212 15.212 0 0 0 1.608-1.693h-3.3a19.529 19.529 0 0 1-1.185-1.608h5.672a10.845 10.845 0 0 0 .931-1.693h-7.535a10.09 10.09 0 0 1-.677-1.693h8.8a16.81 16.81 0 0 0 .847-5.079 21.852 21.852 0 0 0-.339-3.386h-9.82a12.377 12.377 0 0 1 .423-1.693h8.8a10.089 10.089 0 0 0-.677-1.693h-7.45a16.788 16.788 0 0 1 .931-1.693h5.68a8.05 8.05 0 0 0-1.27-1.693h-3.132a14.431 14.431 0 0 1 1.608-1.608 15.621 15.621 0 0 0-10.751-4.148c0-.172 0-.172-.084-.172z" data-name="Path 475" style="fill:#ff5050"/>
        <path id="prefix__Path_476" d="M0 118.231a15.987 15.987 0 0 0 16 16 16.186 16.186 0 0 0 10.751-4.148 15.211 15.211 0 0 0 1.608-1.693h-3.3a19.528 19.528 0 0 1-1.185-1.608h5.672a10.845 10.845 0 0 0 .931-1.693h-7.535a10.09 10.09 0 0 1-.677-1.693h8.8a16.81 16.81 0 0 0 .847-5.079 21.852 21.852 0 0 0-.339-3.386h-9.82a12.377 12.377 0 0 1 .423-1.693h8.8a10.09 10.09 0 0 0-.677-1.693h-7.45a16.788 16.788 0 0 1 .931-1.693h5.68a8.05 8.05 0 0 0-1.27-1.693h-3.132a14.429 14.429 0 0 1 1.608-1.608 15.622 15.622 0 0 0-10.751-4.151h-.085" data-name="Path 476" transform="translate(0 -1.431)" style="fill:#e52836"/>
        <path id="prefix__Path_477" d="M149.769 134.231a16.186 16.186 0 0 0 10.751-4.148 15.211 15.211 0 0 0 1.608-1.693h-3.3a19.525 19.525 0 0 1-1.185-1.608h5.672a10.844 10.844 0 0 0 .931-1.693h-7.534a10.089 10.089 0 0 1-.677-1.693h8.8a16.81 16.81 0 0 0 .847-5.079 21.852 21.852 0 0 0-.339-3.386h-9.82a12.379 12.379 0 0 1 .423-1.693h8.8a10.09 10.09 0 0 0-.677-1.693h-7.45a16.786 16.786 0 0 1 .931-1.693h5.672a8.05 8.05 0 0 0-1.27-1.693h-3.132a14.428 14.428 0 0 1 1.608-1.608 15.621 15.621 0 0 0-10.751-4.148h-.077" data-name="Path 477" transform="translate(-133.769 -1.431)" style="fill:#cb2026"/>
        <g id="prefix__Group_39" data-name="Group 39" transform="translate(1.524 112.652)">
            <path id="prefix__Path_478" d="M184.055 227.45l.254-1.439a3.666 3.666 0 0 1-.423.085c-.593 0-.677-.339-.593-.508l.508-2.963h.931l.254-1.608h-.847l.169-1.016h-1.693s-1.016 5.587-1.016 6.265a1.271 1.271 0 0 0 1.354 1.439 2.6 2.6 0 0 0 1.102-.255z" class="prefix__cls-7" data-name="Path 478" transform="translate(-163.907 -219.238)"/>
            <path id="prefix__Path_479" d="M210.4 232.519a2.693 2.693 0 0 0 2.963 2.963 4.4 4.4 0 0 0 1.778-.254l.339-1.608a5.075 5.075 0 0 1-1.778.423c-1.862 0-1.524-1.354-1.524-1.354h3.471a10.976 10.976 0 0 0 .254-1.524 2.294 2.294 0 0 0-2.455-2.455c-1.778-.17-3.048 1.69-3.048 3.809zm2.963-2.455c.931 0 .762 1.1.762 1.185h-1.862c-.001-.085.169-1.185 1.1-1.185z" class="prefix__cls-7" data-name="Path 479" transform="translate(-189.659 -227.016)"/>
            <path id="prefix__Path_480" d="M300.656 221.012l.339-1.862a4.161 4.161 0 0 1-1.439.423c-1.185 0-1.693-.931-1.693-1.947 0-2.032 1.016-3.132 2.2-3.132a2.827 2.827 0 0 1 1.524.508l.254-1.778a5.952 5.952 0 0 0-1.947-.423c-1.947 0-3.894 1.693-3.894 4.91 0 2.116 1.016 3.556 3.048 3.556a7.6 7.6 0 0 0 1.608-.255z" class="prefix__cls-7" data-name="Path 480" transform="translate(-266.201 -212.8)"/>
            <path id="prefix__Path_481" d="M89.617 227.2a6 6 0 0 0-2.032.339l-.254 1.439a5 5 0 0 1 1.862-.339c.593 0 1.1.085 1.1.593 0 .339-.085.423-.085.423h-.762c-1.439 0-3.048.593-3.048 2.54 0 1.524 1.016 1.862 1.608 1.862a2.544 2.544 0 0 0 1.778-.762l-.085.677h1.524l.677-4.656a2.006 2.006 0 0 0-2.283-2.116zm.339 3.81c0 .254-.169 1.608-1.185 1.608a.661.661 0 0 1-.677-.677c0-.423.254-1.016 1.524-1.016a1.335 1.335 0 0 0 .338.085z" class="prefix__cls-7" data-name="Path 481" transform="translate(-78.781 -225.676)"/>
            <path id="prefix__Path_482" d="M137.147 233.342a2.17 2.17 0 0 0 2.54-2.2c0-2.116-2.032-1.693-2.032-2.54 0-.423.339-.593.931-.593.254 0 1.185.085 1.185.085l.254-1.524a6.431 6.431 0 0 0-1.608-.169c-1.27 0-2.54.508-2.54 2.2 0 1.947 2.116 1.778 2.116 2.54 0 .508-.593.593-1.016.593a5.536 5.536 0 0 1-1.524-.254L135.2 233c.085.173.508.342 1.947.342z" class="prefix__cls-7" data-name="Path 482" transform="translate(-122.417 -224.961)"/>
            <path id="prefix__Path_483" d="M432.025 214.4l-.339 2.286a2.347 2.347 0 0 0-1.608-.847c-1.524 0-2.878 1.862-2.878 4.064 0 1.354.677 2.794 2.116 2.794a2.26 2.26 0 0 0 1.608-.677l-.085.593h1.693l1.27-8.127zm-.762 4.487c0 .931-.423 2.116-1.355 2.116-.593 0-.931-.508-.931-1.354 0-1.355.593-2.2 1.354-2.2.594-.001.932.422.932 1.438z" class="prefix__cls-7" data-name="Path 483" transform="translate(-383.517 -214.231)"/>
            <path id="prefix__Path_484" d="M16.008 222.527l1.016-6.1.169 6.1h1.185l2.2-6.1-.931 6.1h1.778l1.354-8.127h-2.792l-1.693 4.995-.084-4.995h-2.456l-1.354 8.127z" class="prefix__cls-7" data-name="Path 484" transform="translate(-14.4 -214.231)"/>
            <path id="prefix__Path_485" d="M261.862 235.4c.508-2.794.593-5.079 1.778-4.656a6.645 6.645 0 0 1 .593-1.947h-.339c-.762 0-1.355 1.016-1.355 1.016l.169-.931H261.1l-1.1 6.6h1.862z" class="prefix__cls-7" data-name="Path 485" transform="translate(-234.011 -227.107)"/>
            <path id="prefix__Path_486" d="M349.617 227.2a6 6 0 0 0-2.032.339l-.254 1.439a5 5 0 0 1 1.862-.339c.593 0 1.1.085 1.1.593 0 .339-.085.423-.085.423h-.762c-1.439 0-3.048.593-3.048 2.54 0 1.524 1.016 1.862 1.608 1.862a2.544 2.544 0 0 0 1.778-.762l-.085.677h1.524l.677-4.656a1.977 1.977 0 0 0-2.283-2.116zm.423 3.81c0 .254-.169 1.608-1.185 1.608a.661.661 0 0 1-.677-.677c0-.423.254-1.016 1.524-1.016.254.085.254.085.338.085z" class="prefix__cls-7" data-name="Path 486" transform="translate(-311.268 -225.676)"/>
            <path id="prefix__Path_487" d="M396.262 235.4c.508-2.794.593-5.079 1.778-4.656a6.645 6.645 0 0 1 .593-1.947h-.339c-.762 0-1.355 1.016-1.355 1.016l.169-.931H395.5l-1.1 6.6h1.862z" class="prefix__cls-7" data-name="Path 487" transform="translate(-354.188 -227.107)"/>
        </g>
        <g id="prefix__Group_40" data-name="Group 40" transform="translate(1.524 112.652)">
            <path id="prefix__Path_488" d="M180 226.265a1.271 1.271 0 0 0 1.354 1.439 3.222 3.222 0 0 0 1.27-.254l.254-1.439a3.666 3.666 0 0 1-.423.085c-.593 0-.677-.339-.593-.508l.508-2.963h.931l.254-1.608h-.847l.169-1.016" class="prefix__cls-8" data-name="Path 488" transform="translate(-162.476 -219.238)"/>
            <path id="prefix__Path_489" d="M218.4 232.519c0 2.37.762 2.963 2.116 2.963a4.4 4.4 0 0 0 1.778-.254l.339-1.608a5.075 5.075 0 0 1-1.778.423c-1.862 0-1.524-1.354-1.524-1.354h3.469a10.976 10.976 0 0 0 .254-1.524 2.294 2.294 0 0 0-2.455-2.455c-1.776-.17-2.199 1.69-2.199 3.809zm2.116-2.455c.931 0 1.1 1.1 1.1 1.185h-2.2c0-.085.169-1.185 1.1-1.185z" class="prefix__cls-8" data-name="Path 489" transform="translate(-196.813 -227.016)"/>
            <path id="prefix__Path_490" d="M307.81 221.012l.339-1.862a4.16 4.16 0 0 1-1.439.423c-1.185 0-1.693-.931-1.693-1.947 0-2.032 1.016-3.132 2.2-3.132a2.827 2.827 0 0 1 1.524.508l.254-1.778a5.952 5.952 0 0 0-1.947-.423c-1.947 0-3.048 1.693-3.048 4.91 0 2.116.169 3.556 2.2 3.556a7.6 7.6 0 0 0 1.61-.255z" class="prefix__cls-8" data-name="Path 490" transform="translate(-273.354 -212.8)"/>
            <path id="prefix__Path_491" d="M87.331 230.493a5 5 0 0 1 1.862-.339c.593 0 1.1.085 1.1.593 0 .339-.085.423-.085.423h-.762c-1.439 0-3.048.593-3.048 2.54 0 1.524 1.016 1.862 1.608 1.862a2.544 2.544 0 0 0 1.778-.762l-.085.677h1.524l.677-4.656c0-1.947-1.693-2.032-2.37-2.032m1.27 3.64a2.772 2.772 0 0 1-2.032 1.608.661.661 0 0 1-.677-.677c0-.423.254-1.016 1.524-1.016a6.916 6.916 0 0 0 1.185.086z" class="prefix__cls-8" data-name="Path 491" transform="translate(-78.781 -227.107)"/>
            <path id="prefix__Path_492" d="M136 233.173a7.165 7.165 0 0 0 1.947.169 2.17 2.17 0 0 0 2.54-2.2c0-2.116-2.032-1.693-2.032-2.54 0-.423.339-.593.931-.593.254 0 1.185.085 1.185.085l.254-1.524a6.431 6.431 0 0 0-1.608-.169c-1.27 0-1.693.508-1.693 2.2 0 1.947 1.27 1.778 1.27 2.54 0 .508-.593.593-1.016.593" class="prefix__cls-8" data-name="Path 492" transform="translate(-123.132 -224.961)"/>
            <path id="prefix__Path_493" d="M438.788 217.4a2.347 2.347 0 0 0-1.608-.847c-1.524 0-2.032 1.862-2.032 4.064 0 1.354-.169 2.794 1.27 2.794a2.26 2.26 0 0 0 1.608-.677l-.085.593h1.693l1.27-8.127m-2.2 4.4c0 .931-.762 2.116-1.693 2.116-.593 0-.931-.508-.931-1.354 0-1.355.593-2.2 1.354-2.2a1.294 1.294 0 0 1 1.266 1.438z" class="prefix__cls-8" data-name="Path 493" transform="translate(-390.619 -214.946)"/>
            <path id="prefix__Path_494" d="M16.008 222.527l1.016-6.1.169 6.1h1.185l2.2-6.1-.931 6.1h1.778l1.354-8.127h-2.114l-2.37 4.995-.085-4.995h-.931l-2.879 8.127z" class="prefix__cls-8" data-name="Path 494" transform="translate(-14.4 -214.231)"/>
            <path id="prefix__Path_495" d="M260.8 235.4h1.778c.508-2.794.593-5.079 1.778-4.656a6.645 6.645 0 0 1 .593-1.947h-.339c-.762 0-1.354 1.016-1.354 1.016l.169-.931" class="prefix__cls-8" data-name="Path 495" transform="translate(-234.726 -227.107)"/>
            <path id="prefix__Path_496" d="M347.331 230.493a5 5 0 0 1 1.862-.339c.593 0 1.1.085 1.1.593 0 .339-.085.423-.085.423h-.762c-1.439 0-3.048.593-3.048 2.54 0 1.524 1.016 1.862 1.608 1.862a2.543 2.543 0 0 0 1.778-.762l-.085.677h1.524l.677-4.656c0-1.947-1.693-2.032-2.37-2.032m1.27 3.64a2.772 2.772 0 0 1-2.032 1.608.661.661 0 0 1-.677-.677c0-.423.254-1.016 1.524-1.016a7.448 7.448 0 0 0 1.185.086z" class="prefix__cls-8" data-name="Path 496" transform="translate(-311.268 -227.107)"/>
            <path id="prefix__Path_497" d="M395.2 235.4h1.778c.508-2.794.593-5.079 1.778-4.656a6.645 6.645 0 0 1 .593-1.947h-.339c-.762 0-1.355 1.016-1.355 1.016l.169-.931" class="prefix__cls-8" data-name="Path 497" transform="translate(-354.904 -227.107)"/>
        </g>
    </g>
</svg>
