<svg xmlns="http://www.w3.org/2000/svg" width="491.494" height="532.521" viewBox="0 0 491.494 532.521">
    <defs>
        <style>
            .prefix__cls-2{fill:#31978c}.prefix__cls-3{fill:#44c4a1}.prefix__cls-4{fill:#3ea69b}.prefix__cls-5{fill:#f6c358}.prefix__cls-6{fill:#fff}.prefix__cls-7{fill:#fcd462}.prefix__cls-8{fill:#dc8744}
        </style>
    </defs>
    <g id="prefix__Group_93" data-name="Group 93" transform="translate(-1298 -330)">
        <g id="prefix__Group_83" data-name="Group 83">
            <g id="prefix__Group_82" data-name="Group 82">
                <g id="prefix__Group_81" data-name="Group 81">
                    <g id="prefix__Group_80" data-name="Group 80" transform="translate(26 10)">
                        <circle id="prefix__Ellipse_23" cx="192" cy="192" r="192" data-name="Ellipse 23" transform="translate(1367 320)" style="fill:#f5f5f5"/>
                    </g>
                </g>
            </g>
        </g>
        <g id="prefix__cash" transform="translate(1297.995 371.013)">
            <path id="prefix__Rectangle_82" d="M0 0H422.398V215.003H0z" class="prefix__cls-2" data-name="Rectangle 82" transform="rotate(149.66 220.615 159.391)"/>
            <path id="prefix__Path_545" d="M354.827 40.557L67.473 208.811c6.25 10.674 2.413 24.539-8.567 30.968l64.954 110.933c10.981-6.429 24.95-2.99 31.2 7.684l287.354-168.254c-6.25-10.674-2.415-24.538 8.568-30.968L386.026 48.241c-10.982 6.431-24.949 2.99-31.199-7.684z" class="prefix__cls-3" data-name="Path 545"/>
            <g id="prefix__Group_84" data-name="Group 84">
                <ellipse id="prefix__Ellipse_24" cx="73.339" cy="57.938" class="prefix__cls-2" data-name="Ellipse 24" rx="73.339" ry="57.938" transform="rotate(-120.33 204.744 76.637)"/>
                <circle id="prefix__Ellipse_25" cx="13.107" cy="13.107" r="13.107" class="prefix__cls-2" data-name="Ellipse 25" transform="translate(383.438 103.453)"/>
            </g>
            <circle id="prefix__Ellipse_26" cx="13.107" cy="13.107" r="13.107" class="prefix__cls-4" data-name="Ellipse 26" transform="translate(100.213 269.319)"/>
            <path id="prefix__Path_546" d="M282.084 252.029l-5.256-8.977a61.863 61.863 0 0 1-38.1 4.314l2.713-15.954q15.583 2.93 27.539-1.76L255.013 205.8q-15.843 4.821-25.467 3.187T213.7 196.715q-6.227-10.635-2.754-21.756T226 156.24l-3.6-6.149 7.866-4.606 3.671 6.27a59.566 59.566 0 0 1 30.981-5.75L263.543 162a45.968 45.968 0 0 0-21.761 3.16l13.535 23.117.37-.217q16.087-4.954 26.031-3.188 9.963 1.766 16.257 12.526t2.634 21.988q-3.662 11.235-15.843 19.187l5.183 8.851zm-55.151-74.293a10.2 10.2 0 0 0 .9 8.719 10.043 10.043 0 0 0 6.276 5.073q3.854.969 12.048-.859L233.7 169.394q-5.25 3.738-6.767 8.342zm57.46 38.761a11.005 11.005 0 0 0-7.43-14.389q-4.194-.932-12.859 1.173l12.958 22.131q5.544-4.062 7.331-8.912z" class="prefix__cls-3" data-name="Path 546"/>
            <path id="prefix__Rectangle_83" d="M0 0H82.022V215.003H0z" class="prefix__cls-5" data-name="Rectangle 83" transform="rotate(149.66 135.525 182.483)"/>
            <g id="prefix__Group_85" data-name="Group 85">
                <path id="prefix__Rectangle_84" d="M0 0H6.272V215.003H0z" class="prefix__cls-6" data-name="Rectangle 84" transform="rotate(149.66 100.686 191.95)"/>
                <path id="prefix__Rectangle_85" d="M0 0H6.272V215.003H0z" class="prefix__cls-6" data-name="Rectangle 85" transform="rotate(149.66 132.49 183.3)"/>
            </g>
            <path id="prefix__Rectangle_86" d="M0 0H422.398V215.003H0z" class="prefix__cls-4" data-name="Rectangle 86" transform="rotate(169.117 225.922 192.295)"/>
            <path id="prefix__Path_547" d="M78.578 385.148l-28.985-150.8a15.36 15.36 0 0 0 12.185-17.983l354.49-68.135a15.36 15.36 0 0 0 17.983 12.185l28.985 150.8a15.36 15.36 0 0 0-12.185 17.985l-354.49 68.133a15.359 15.359 0 0 0-17.983-12.185z" class="prefix__cls-3" data-name="Path 547"/>
            <g id="prefix__Group_86" data-name="Group 86">
                <ellipse id="prefix__Ellipse_27" cx="73.339" cy="57.938" class="prefix__cls-4" data-name="Ellipse 27" rx="73.339" ry="57.938" transform="rotate(-100.883 253.6 89.749)"/>
                <circle id="prefix__Ellipse_28" cx="13.107" cy="13.107" r="13.107" class="prefix__cls-4" data-name="Ellipse 28" transform="translate(404.434 228.702)"/>
                <circle id="prefix__Ellipse_29" cx="13.107" cy="13.107" r="13.107" class="prefix__cls-4" data-name="Ellipse 29" transform="translate(82.159 290.65)"/>
            </g>
            <path id="prefix__Path_548" d="M264.488 331.374l-1.963-10.215a61.858 61.858 0 0 1-37.357-8.632l7.875-14.137q13.716 7.956 26.551 7.52l-5.218-27.149q-16.544-.735-25.073-5.484t-10.855-16.849q-2.326-12.1 4.655-21.43t20.434-12.631l-1.345-7 8.951-1.72 1.371 7.135a59.569 59.569 0 0 1 31.126 4.9l-6.625 14.623a45.984 45.984 0 0 0-21.569-4.274l5.056 26.306.421-.081q16.818.691 25.605 5.671 8.8 4.986 11.152 17.229t-4.845 21.608q-7.2 9.372-21.333 12.809l1.936 10.073zm-27.234-88.426a10.2 10.2 0 0 0-2.059 8.52 10.045 10.045 0 0 0 4.226 6.875q3.309 2.2 11.646 3.206l-4.654-24.211q-6.193 1.774-9.159 5.61zm41.254 55.7A11.005 11.005 0 0 0 276.3 282.6q-3.643-2.275-12.514-3.18l4.841 25.185q6.578-1.982 9.881-5.961z" class="prefix__cls-3" data-name="Path 548"/>
            <path id="prefix__Path_549" d="M171.553 455.444c0 19.917-38.4 36.064-85.774 36.064S0 475.361 0 455.444v-29.5h171.553v29.5z" class="prefix__cls-5" data-name="Path 549"/>
            <ellipse id="prefix__Ellipse_30" cx="85.775" cy="36.045" class="prefix__cls-7" data-name="Ellipse 30" rx="85.775" ry="36.045" transform="translate(.006 389.875)"/>
            <g id="prefix__Group_87" data-name="Group 87">
                <path id="prefix__Path_550" d="M85.779 396.924c-41.343 0-74.859 12.992-74.859 29.019s33.516 29.019 74.859 29.019 74.859-12.992 74.859-29.019-33.516-29.019-74.859-29.019zm0 54.813c-36.749 0-66.541-11.549-66.541-25.8s29.792-25.8 66.541-25.8 66.541 11.549 66.541 25.8-29.792 25.8-66.541 25.8z" class="prefix__cls-8" data-name="Path 550"/>
                <path id="prefix__Path_551" d="M83.038 445.989v-3.531a109.174 109.174 0 0 1-30.693-5.27l9.107-4.207a83.1 83.1 0 0 0 21.586 4.207v-9.383q-14.1-1.3-20.652-3.434t-6.549-6.311q0-4.184 7.544-6.845t19.657-2.9V405.9h7.98v2.466a113.617 113.617 0 0 1 25.952 3.629l-8.112 4.45a84.639 84.639 0 0 0-17.839-2.806v9.092h.376q14.346 1.308 21.078 3.53 6.747 2.226 6.742 6.457t-7.737 6.892q-7.737 2.662-20.459 2.9v3.481h-7.981zm-8.8-31.217c-2.122.724-3.178 1.628-3.178 2.708s.833 1.935 2.5 2.562a48.114 48.114 0 0 0 9.483 1.814v-8.368a31.636 31.636 0 0 0-8.808 1.284zm26.262 21.206c2.325-.74 3.493-1.675 3.493-2.8s-.914-2.023-2.741-2.684a53.534 53.534 0 0 0-10.234-1.862v8.7a37.307 37.307 0 0 0 9.482-1.354z" class="prefix__cls-8" data-name="Path 551"/>
            </g>
            <path id="prefix__Path_552" d="M171.553 419.615c0 19.917-38.4 36.064-85.774 36.064S0 439.533 0 419.615v-29.5h171.553v29.5z" class="prefix__cls-5" data-name="Path 552"/>
            <ellipse id="prefix__Ellipse_31" cx="85.775" cy="36.045" class="prefix__cls-7" data-name="Ellipse 31" rx="85.775" ry="36.045" transform="translate(.006 354.087)"/>
            <g id="prefix__Group_88" data-name="Group 88">
                <path id="prefix__Path_553" d="M85.779 361.1c-41.343 0-74.859 12.992-74.859 29.019s33.516 29.019 74.859 29.019 74.859-12.992 74.859-29.019S127.122 361.1 85.779 361.1zm0 54.813c-36.749 0-66.541-11.549-66.541-25.8s29.792-25.8 66.541-25.8 66.541 11.549 66.541 25.8-29.792 25.795-66.541 25.795z" class="prefix__cls-8" data-name="Path 553"/>
                <path id="prefix__Path_554" d="M83.038 410.16v-3.531a109.174 109.174 0 0 1-30.693-5.27l9.107-4.207a83.1 83.1 0 0 0 21.586 4.207v-9.383q-14.1-1.3-20.652-3.434t-6.549-6.311q0-4.184 7.544-6.845t19.657-2.9v-2.419h7.98v2.466a113.617 113.617 0 0 1 25.952 3.629l-8.112 4.45a84.639 84.639 0 0 0-17.839-2.806v9.094h.376q14.346 1.308 21.078 3.531 6.747 2.226 6.742 6.457t-7.737 6.892q-7.737 2.662-20.459 2.9v3.481h-7.981zm-8.8-31.217c-2.122.724-3.178 1.628-3.178 2.708s.833 1.935 2.5 2.562a48.114 48.114 0 0 0 9.483 1.814v-8.368a31.675 31.675 0 0 0-8.808 1.284zm26.262 21.206c2.325-.74 3.493-1.675 3.493-2.8s-.914-2.023-2.741-2.684a53.534 53.534 0 0 0-10.233-1.865v8.7a37.307 37.307 0 0 0 9.481-1.351z" class="prefix__cls-8" data-name="Path 554"/>
            </g>
            <path id="prefix__Path_555" d="M171.553 383.786c0 19.917-38.4 36.064-85.774 36.064S0 403.7 0 383.786v-29.5h171.553v29.5z" class="prefix__cls-5" data-name="Path 555"/>
            <ellipse id="prefix__Ellipse_32" cx="85.775" cy="36.045" class="prefix__cls-7" data-name="Ellipse 32" rx="85.775" ry="36.045" transform="translate(.006 318.247)"/>
            <g id="prefix__Group_89" data-name="Group 89">
                <path id="prefix__Path_556" d="M85.779 325.266c-41.343 0-74.859 12.992-74.859 29.019S44.436 383.3 85.779 383.3s74.859-12.992 74.859-29.019-33.516-29.015-74.859-29.015zm0 54.814c-36.749 0-66.541-11.549-66.541-25.8s29.792-25.8 66.541-25.8 66.541 11.549 66.541 25.8-29.792 25.8-66.541 25.8z" class="prefix__cls-8" data-name="Path 556"/>
                <path id="prefix__Path_557" d="M83.038 374.332V370.8a109.174 109.174 0 0 1-30.693-5.27l9.107-4.207a83.1 83.1 0 0 0 21.586 4.207v-9.383q-14.1-1.3-20.652-3.434t-6.549-6.313q0-4.182 7.544-6.845t19.657-2.9v-2.419h7.98v2.464a113.617 113.617 0 0 1 25.952 3.629l-8.112 4.45a84.639 84.639 0 0 0-17.839-2.806v9.092h.376q14.346 1.308 21.078 3.531 6.747 2.226 6.742 6.457t-7.737 6.892q-7.737 2.662-20.459 2.9v3.481h-7.981zm-8.8-31.218c-2.122.724-3.178 1.628-3.178 2.708s.833 1.934 2.5 2.562a48.114 48.114 0 0 0 9.483 1.814v-8.368a31.673 31.673 0 0 0-8.808 1.284zm26.262 21.207c2.325-.74 3.493-1.675 3.493-2.8s-.914-2.023-2.741-2.684a53.534 53.534 0 0 0-10.234-1.862v8.7a37.4 37.4 0 0 0 9.482-1.354z" class="prefix__cls-8" data-name="Path 557"/>
            </g>
            <path id="prefix__Path_558" d="M171.553 347.957c0 19.917-38.4 36.064-85.774 36.064S0 367.875 0 347.957v-29.5h171.553v29.5z" class="prefix__cls-5" data-name="Path 558"/>
            <ellipse id="prefix__Ellipse_33" cx="85.775" cy="36.045" class="prefix__cls-7" data-name="Ellipse 33" rx="85.775" ry="36.045" transform="translate(.006 282.407)"/>
            <g id="prefix__Group_90" data-name="Group 90">
                <path id="prefix__Path_559" d="M85.779 289.437c-41.343 0-74.859 12.992-74.859 29.019s33.516 29.019 74.859 29.019 74.859-12.992 74.859-29.019-33.516-29.019-74.859-29.019zm0 54.814c-36.749 0-66.541-11.549-66.541-25.8s29.792-25.8 66.541-25.8 66.541 11.549 66.541 25.8-29.792 25.8-66.541 25.8z" class="prefix__cls-8" data-name="Path 559"/>
                <path id="prefix__Path_560" d="M83.038 338.5v-3.531a109.174 109.174 0 0 1-30.693-5.27l9.107-4.208a83.145 83.145 0 0 0 21.586 4.209v-9.383q-14.1-1.3-20.652-3.434t-6.549-6.311q0-4.182 7.544-6.845t19.657-2.9v-2.419h7.98v2.466a113.617 113.617 0 0 1 25.952 3.626l-8.112 4.45a84.639 84.639 0 0 0-17.839-2.806v9.092h.376q14.346 1.308 21.078 3.531 6.747 2.226 6.742 6.457t-7.737 6.892q-7.737 2.662-20.459 2.9v3.484h-7.981zm-8.8-31.218c-2.122.724-3.178 1.628-3.178 2.708s.833 1.934 2.5 2.562a48.114 48.114 0 0 0 9.483 1.814V306a31.673 31.673 0 0 0-8.808 1.285zm26.262 21.21c2.325-.74 3.493-1.675 3.493-2.8s-.914-2.023-2.741-2.684a53.534 53.534 0 0 0-10.234-1.862v8.7a37.353 37.353 0 0 0 9.482-1.354z" class="prefix__cls-8" data-name="Path 560"/>
            </g>
            <path id="prefix__Path_561" d="M352.436 455.444c0 19.917-38.4 36.064-85.774 36.064s-85.774-16.146-85.774-36.064v-29.5h171.548v29.5z" class="prefix__cls-5" data-name="Path 561"/>
            <ellipse id="prefix__Ellipse_34" cx="85.775" cy="36.045" class="prefix__cls-7" data-name="Ellipse 34" rx="85.775" ry="36.045" transform="translate(180.88 389.875)"/>
            <g id="prefix__Group_91" data-name="Group 91">
                <path id="prefix__Path_562" d="M266.662 396.924c-41.343 0-74.859 12.992-74.859 29.019s33.516 29.019 74.859 29.019 74.859-12.992 74.859-29.019-33.515-29.019-74.859-29.019zm0 54.813c-36.749 0-66.541-11.549-66.541-25.8s29.792-25.8 66.541-25.8S333.2 411.7 333.2 425.942s-29.789 25.795-66.538 25.795z" class="prefix__cls-8" data-name="Path 562"/>
                <path id="prefix__Path_563" d="M263.921 445.989v-3.531a109.174 109.174 0 0 1-30.693-5.27l9.107-4.207a83.1 83.1 0 0 0 21.586 4.207v-9.383q-14.1-1.3-20.652-3.434t-6.549-6.311q0-4.184 7.544-6.845t19.657-2.9V405.9h7.98v2.466a113.617 113.617 0 0 1 25.952 3.629l-8.112 4.45a84.639 84.639 0 0 0-17.839-2.806v9.092h.376q14.346 1.308 21.078 3.53t6.742 6.457q0 4.233-7.737 6.892t-20.459 2.9v3.481h-7.981zm-8.8-31.217c-2.122.724-3.178 1.628-3.178 2.708s.833 1.935 2.5 2.562a48.114 48.114 0 0 0 9.483 1.814v-8.368a31.636 31.636 0 0 0-8.808 1.284zm26.267 21.206c2.325-.74 3.493-1.675 3.493-2.8s-.914-2.023-2.741-2.684a53.534 53.534 0 0 0-10.234-1.862v8.7a37.315 37.315 0 0 0 9.479-1.354z" class="prefix__cls-8" data-name="Path 563"/>
            </g>
            <path id="prefix__Path_564" d="M352.436 419.615c0 19.917-38.4 36.064-85.774 36.064s-85.774-16.146-85.774-36.064v-29.5h171.548v29.5z" class="prefix__cls-5" data-name="Path 564"/>
            <ellipse id="prefix__Ellipse_35" cx="85.775" cy="36.045" class="prefix__cls-7" data-name="Ellipse 35" rx="85.775" ry="36.045" transform="translate(180.88 354.087)"/>
            <g id="prefix__Group_92" data-name="Group 92">
                <path id="prefix__Path_565" d="M266.662 361.1c-41.343 0-74.859 12.992-74.859 29.019s33.516 29.019 74.859 29.019 74.859-12.992 74.859-29.019-33.515-29.019-74.859-29.019zm0 54.813c-36.749 0-66.541-11.549-66.541-25.8s29.792-25.8 66.541-25.8 66.541 11.549 66.541 25.8-29.792 25.795-66.541 25.795z" class="prefix__cls-8" data-name="Path 565"/>
                <path id="prefix__Path_566" d="M263.921 410.16v-3.531a109.174 109.174 0 0 1-30.693-5.27l9.107-4.207a83.1 83.1 0 0 0 21.586 4.207v-9.383q-14.1-1.3-20.652-3.434t-6.549-6.311q0-4.184 7.544-6.845t19.657-2.9v-2.419h7.98v2.466a113.617 113.617 0 0 1 25.952 3.629l-8.112 4.45a84.639 84.639 0 0 0-17.839-2.806v9.094h.376q14.346 1.308 21.078 3.531t6.742 6.457q0 4.233-7.737 6.892t-20.459 2.9v3.481h-7.981zm-8.8-31.217c-2.122.724-3.178 1.628-3.178 2.708s.833 1.935 2.5 2.562a48.114 48.114 0 0 0 9.483 1.814v-8.368a31.675 31.675 0 0 0-8.808 1.284zm26.267 21.206c2.325-.74 3.493-1.675 3.493-2.8s-.914-2.023-2.741-2.684a53.534 53.534 0 0 0-10.24-1.865v8.7a37.315 37.315 0 0 0 9.485-1.351z" class="prefix__cls-8" data-name="Path 566"/>
            </g>
        </g>
    </g>
</svg>
