<svg xmlns="http://www.w3.org/2000/svg" width="479.296" height="489" viewBox="0 0 479.296 489">
    <defs>
        <style>
            .prefix__cls-4{fill:#f9e109}.prefix__cls-5{fill:#39519d}.prefix__cls-6{fill:#fcbc04}.prefix__cls-7{fill:#e59730}.prefix__cls-8{fill:#a1d51c}
        </style>
    </defs>
    <g id="prefix__Group_81" data-name="Group 81" transform="translate(-1299 -334)">
        <g id="prefix__Group_80" data-name="Group 80" transform="translate(-68 14)">
            <circle id="prefix__Ellipse_23" cx="192" cy="192" r="192" data-name="Ellipse 23" transform="translate(1367 320)" style="fill:#f5f5f5"/>
        </g>
        <g id="prefix__contract" transform="translate(1376 422.668)">
            <path id="prefix__Path_332" d="M13.793.332h275.862a13.794 13.794 0 0 1 13.793 13.793v372.414a13.794 13.794 0 0 1-13.793 13.793H13.793A13.794 13.794 0 0 1 0 386.539V14.125A13.794 13.794 0 0 1 13.793.332zm0 0" data-name="Path 332" style="fill:#57b7eb"/>
            <path id="prefix__Path_333" d="M172.414 345.16A124.14 124.14 0 0 1 48.276 221.022V.332H13.793A13.794 13.794 0 0 0 0 14.125v372.414a13.794 13.794 0 0 0 13.793 13.793h275.862a13.794 13.794 0 0 0 13.793-13.793V345.16zm0 0" data-name="Path 333" style="fill:#4891d3"/>
            <path id="prefix__Path_334" d="M72 48.332h179.31v27.586H72zm0 0" class="prefix__cls-4" data-name="Path 334" transform="translate(-9.931 -6.621)"/>
            <g id="prefix__Group_28" data-name="Group 28" transform="translate(41.379 89.987)">
                <path id="prefix__Path_335" d="M232.828 118.125H94.9a6.9 6.9 0 1 1 0-13.793h137.928a6.9 6.9 0 1 1 0 13.793zm0 0" class="prefix__cls-5" data-name="Path 335" transform="translate(-53.517 -104.332)"/>
                <path id="prefix__Path_336" d="M278.621 174.125H126.9a6.9 6.9 0 0 1 0-13.793h151.721a6.9 6.9 0 0 1 0 13.793zm0 0" class="prefix__cls-5" data-name="Path 336" transform="translate(-57.931 -112.056)"/>
                <path id="prefix__Path_337" d="M192.828 222.125H54.9a6.9 6.9 0 1 1 0-13.793h137.928a6.9 6.9 0 1 1 0 13.793zm0 0" class="prefix__cls-5" data-name="Path 337" transform="translate(-48 -118.677)"/>
                <path id="prefix__Path_338" d="M295.172 222.125H246.9a6.9 6.9 0 1 1 0-13.793h48.276a6.9 6.9 0 1 1 0 13.793zm0 0" class="prefix__cls-5" data-name="Path 338" transform="translate(-74.483 -118.677)"/>
                <path id="prefix__Path_339" d="M123.862 262.125H54.9a6.9 6.9 0 1 1 0-13.793h68.966a6.9 6.9 0 0 1 0 13.793zm0 0" class="prefix__cls-5" data-name="Path 339" transform="translate(-48 -124.194)"/>
                <path id="prefix__Path_340" d="M215.172 262.125H166.9a6.9 6.9 0 1 1 0-13.793h48.276a6.9 6.9 0 1 1 0 13.793zm0 0" class="prefix__cls-5" data-name="Path 340" transform="translate(-63.448 -124.194)"/>
            </g>
            <path id="prefix__Path_341" d="M251.31 75.918H72V48.332zm0 0" class="prefix__cls-6" data-name="Path 341" transform="translate(-9.931 -6.621)"/>
            <path id="prefix__Path_342" d="M135.448 364.056a51.724 51.724 0 1 1-51.724-51.724 51.725 51.725 0 0 1 51.724 51.724zm0 0" class="prefix__cls-4" data-name="Path 342" transform="translate(-4.414 -43.034)"/>
            <path id="prefix__Path_343" d="M83.723 416.387a51.722 51.722 0 0 0 49.172-35.725 124.126 124.126 0 0 1-68.62-63.932 51.725 51.725 0 0 0 19.447 99.657zm0 0" class="prefix__cls-6" data-name="Path 343" transform="translate(-4.412 -43.641)"/>
            <path id="prefix__Path_344" d="M190.9 397.236a5.926 5.926 0 0 1-2.206-.347 6.9 6.9 0 0 1-4.347-8.688l16.965-50.9a13.793 13.793 0 0 1 26.829 3.239l2.347 27.586 2.482-4.206a13.672 13.672 0 0 1 24.619 1.724l4.415 10.9 20.07-25.519a6.9 6.9 0 0 1 10.826 8.553l-20.137 25.586a13.793 13.793 0 0 1-23.586-3.519l-4.277-10.824-2.553 4.206a13.793 13.793 0 0 1-25.586-5.378l-2.344-28-16.622 50.62a6.9 6.9 0 0 1-6.9 4.967zm0 0" class="prefix__cls-5" data-name="Path 344" transform="translate(-25.379 -45.18)"/>
            <path id="prefix__Path_345" d="M85.7 388.684a13.788 13.788 0 0 1-9.725-4l-14.622-14.622a6.9 6.9 0 0 1 9.725-9.793L85.7 374.891l24.411-24.343a6.9 6.9 0 0 1 9.725 9.722l-24.344 24.413a13.8 13.8 0 0 1-9.793 4zm0 0" class="prefix__cls-5" data-name="Path 345" transform="translate(-8.181 -48.077)"/>
            <path id="prefix__Path_346" d="M385.319 155.738l35.836 20.69-62.069 107.51-35.836-20.69zm0 0" class="prefix__cls-6" data-name="Path 346" transform="translate(-44.586 -21.435)"/>
            <path id="prefix__Path_347" d="M355.615 215.371l-32.415 56 35.863 20.69 10.483-18.275a186.141 186.141 0 0 1-13.931-58.415zm0 0" class="prefix__cls-7" data-name="Path 347" transform="translate(-44.579 -29.661)"/>
            <path id="prefix__Path_348" d="M356.713 301.182l-35.863-20.69-14.69 39.241 23.862 13.793zm0 0" class="prefix__cls-8" data-name="Path 348" transform="translate(-42.229 -38.643)"/>
            <path id="prefix__Path_349" d="M306 327.465l24 13.793-6.9 12a13.841 13.841 0 1 1-24-13.793zm0 0" class="prefix__cls-7" data-name="Path 349" transform="translate(-41.001 -45.122)"/>
            <path id="prefix__Path_350" d="M415.87 114.2l35.836 20.69-20.69 35.836-35.836-20.69zm0 0" class="prefix__cls-6" data-name="Path 350" transform="translate(-54.508 -15.706)"/>
            <path id="prefix__Path_351" d="M451.847 98.2a13.792 13.792 0 0 1 5.048 18.841L450 128.985l-23.89-13.793 6.9-11.944a13.79 13.79 0 0 1 18.837-5.048zm0 0" data-name="Path 351" transform="translate(-58.774 -13.244)" style="fill:#c4f236"/>
            <path id="prefix__Path_352" d="M384.32 172.843l6.9-11.944 35.836 20.69-6.9 11.944zm0 0" class="prefix__cls-7" data-name="Path 352" transform="translate(-53.01 -22.147)"/>
            <path id="prefix__Path_353" d="M417.428 254.662a6.862 6.862 0 0 1-5.93-10.345l27.586-47.794a6.91 6.91 0 0 0-2.553-9.446l-59.725-34.483a6.89 6.89 0 1 1 6.9-11.931l59.725 34.483a20.678 20.678 0 0 1 7.587 28.273l-27.586 47.794a6.9 6.9 0 0 1-6 3.448zm0 0" class="prefix__cls-5" data-name="Path 353" transform="translate(-51.497 -19.228)"/>
            <path id="prefix__Path_354" d="M444.988 103.223a28.07 28.07 0 0 1 .966-6.9 13.8 13.8 0 0 0-12.9 6.9l-6.9 11.931 23.862 13.793 3.448-5.93a27.178 27.178 0 0 1-8.483-19.794zm0 0" class="prefix__cls-8" data-name="Path 354" transform="translate(-58.781 -13.236)"/>
        </g>
    </g>
</svg>
