<svg xmlns="http://www.w3.org/2000/svg" id="prefix__Page-1" width="188.802" height="189" viewBox="0 0 188.802 189">
    <defs>
        <style>
            .prefix__cls-2{fill:#95a5a5}.prefix__cls-7{fill:#285680}.prefix__cls-10{fill:#c03a2b}
        </style>
    </defs>
    <g id="prefix___003---Deadlines" data-name="003---Deadlines">
        <path id="prefix__Shape" d="M169.731 14v41.095L84.082 134.77H13.056A13.056 13.056 0 0 1 0 121.714V14z" transform="translate(0 31.697)" style="fill:#ecf0f1"/>
        <rect id="prefix__Rectangle-path" width="20" height="17" class="prefix__cls-2" rx="1" transform="translate(12.802 65)"/>
        <rect id="prefix__Rectangle-path-2" width="19" height="17" class="prefix__cls-2" data-name="Rectangle-path" rx="1" transform="translate(48.802 65)"/>
        <rect id="prefix__Rectangle-path-3" width="19" height="17" class="prefix__cls-2" data-name="Rectangle-path" rx="1" transform="translate(85.802 65)"/>
        <rect id="prefix__Rectangle-path-4" width="19" height="16" class="prefix__cls-2" data-name="Rectangle-path" rx="1" transform="translate(48.802 98)"/>
        <rect id="prefix__Rectangle-path-5" width="19" height="17" class="prefix__cls-2" data-name="Rectangle-path" rx="1" transform="translate(48.802 130)"/>
        <rect id="prefix__Rectangle-path-6" width="20" height="16" class="prefix__cls-2" data-name="Rectangle-path" rx="1" transform="translate(12.802 98)"/>
        <rect id="prefix__Rectangle-path-7" width="20" height="17" class="prefix__cls-2" data-name="Rectangle-path" rx="1" transform="translate(12.802 130)"/>
        <ellipse id="prefix__Oval" cx="58.5" cy="59" rx="58.5" ry="59" transform="translate(71.802 71)" style="fill:#3b97d3"/>
        <ellipse id="prefix__Oval-2" cx="52.5" cy="52" data-name="Oval" rx="52.5" ry="52" transform="translate(77.802 78)" style="fill:#2980ba"/>
        <path id="prefix__Shape-2" d="M117.29 71.7a45.622 45.622 0 1 1-25.721-41.129A45.622 45.622 0 0 1 117.29 71.7z" data-name="Shape" transform="translate(58.969 58.864)" style="fill:#2fa8cc"/>
        <path id="prefix__Shape-3" d="M91.3 48.849a45.7 45.7 0 0 1-42.436 45.566 40.359 40.359 0 0 1-6.528 0A43.52 43.52 0 0 1 30.814 92.1a2.7 2.7 0 0 1-.228-.424 45.759 45.759 0 0 1 21.151-61.1 45.136 45.136 0 0 1 16.712-4.439 40.739 40.739 0 0 1 6.528 0A43.519 43.519 0 0 1 86.5 28.448a2.7 2.7 0 0 1 .228.424A45.7 45.7 0 0 1 91.3 48.849z" data-name="Shape" transform="translate(58.85 58.865)" style="fill:#67b9cc"/>
        <g id="prefix__Group_30" data-name="Group 30" transform="translate(84.866 84.866)">
            <path id="prefix__Shape-4" d="M45.528 26.131v6.4a3.264 3.264 0 0 1-6.528 0v-6.4c1.077-.1 2.154-.131 3.264-.131s2.187.033 3.264.131z" class="prefix__cls-7" data-name="Shape" transform="translate(3.433 -26)"/>
            <path id="prefix__Shape-5" d="M39.821 37.421a3.241 3.241 0 0 1-4.472-1.175L32.15 30.7a51.023 51.023 0 0 1 5.65-3.3l3.231 5.582a3.264 3.264 0 0 1-1.208 4.439z" class="prefix__cls-7" data-name="Shape" transform="translate(-12.076 -22.83)"/>
            <path id="prefix__Shape-6" d="M37.421 39.821a3.235 3.235 0 0 1-2.807 1.632 3.293 3.293 0 0 1-1.632-.424L27.4 37.8a51.022 51.022 0 0 1 3.3-5.647l5.549 3.2a3.264 3.264 0 0 1 1.175 4.472z" class="prefix__cls-7" data-name="Shape" transform="translate(-22.83 -12.076)"/>
            <path id="prefix__Shape-7" d="M35.792 42.264a3.264 3.264 0 0 1-3.264 3.264h-6.4c-.1-1.077-.131-2.154-.131-3.264s.033-2.187.131-3.264h6.4a3.264 3.264 0 0 1 3.264 3.264z" class="prefix__cls-7" data-name="Shape" transform="translate(-26 3.433)"/>
            <path id="prefix__Shape-8" d="M36.246 51.112l-5.549 3.2a51.023 51.023 0 0 1-3.3-5.647l5.582-3.231a3.275 3.275 0 1 1 3.264 5.679z" class="prefix__cls-7" data-name="Shape" transform="translate(-22.83 17.009)"/>
            <path id="prefix__Shape-9" d="M41.028 54.294L37.8 59.876a51.021 51.021 0 0 1-5.647-3.3l3.2-5.549a3.275 3.275 0 0 1 5.679 3.264z" class="prefix__cls-7" data-name="Shape" transform="translate(-12.076 26.948)"/>
            <path id="prefix__Shape-10" d="M45.528 54.264v6.4c-1.077.1-2.154.131-3.264.131s-2.187-.035-3.264-.133v-6.4a3.264 3.264 0 0 1 6.528 0z" class="prefix__cls-7" data-name="Shape" transform="translate(3.433 30.602)"/>
            <path id="prefix__Shape-11" d="M54.311 56.579a51.023 51.023 0 0 1-5.647 3.3l-3.231-5.582a3.275 3.275 0 0 1 5.679-3.264z" class="prefix__cls-7" data-name="Shape" transform="translate(17.009 26.948)"/>
            <path id="prefix__Shape-12" d="M59.876 48.664a51.023 51.023 0 0 1-3.3 5.647l-5.549-3.2a3.275 3.275 0 0 1 3.264-5.679z" class="prefix__cls-7" data-name="Shape" transform="translate(26.948 17.009)"/>
            <path id="prefix__Shape-13" d="M60.792 42.264c0 1.11-.033 2.187-.131 3.264h-6.4a3.264 3.264 0 1 1 0-6.528h6.4c.099 1.077.131 2.154.131 3.264z" class="prefix__cls-7" data-name="Shape" transform="translate(30.602 3.433)"/>
            <path id="prefix__Shape-14" d="M59.884 37.8L54.3 41.028a3.275 3.275 0 1 1-3.264-5.679l5.549-3.2a51.021 51.021 0 0 1 3.3 5.647z" class="prefix__cls-7" data-name="Shape" transform="translate(26.94 -12.076)"/>
            <path id="prefix__Shape-15" d="M54.3 30.7l-3.2 5.549a3.275 3.275 0 0 1-5.679-3.264l3.236-5.585a51.022 51.022 0 0 1 5.643 3.3z" class="prefix__cls-7" data-name="Shape" transform="translate(17.016 -22.83)"/>
        </g>
        <path id="prefix__Shape-16" d="M55.319 74.4a3.264 3.264 0 0 1-2.308-.956L39.955 60.389a3.264 3.264 0 0 1-.692-3.59l9.793-22.849a3.264 3.264 0 0 1 6 2.572l-8.922 20.815 11.493 11.5a3.264 3.264 0 0 1-2.308 5.563z" data-name="Shape" transform="translate(88.299 72.481)" style="fill:#bdc3c7"/>
        <path id="prefix__Shape-17" d="M169.731 16.056v29.377H0V16.056A13.056 13.056 0 0 1 13.056 3h143.619a13.056 13.056 0 0 1 13.056 13.056z" data-name="Shape" transform="translate(0 6.792)" style="fill:#e64c3c"/>
        <path id="prefix__Shape-18" d="M56.848 3a15.406 15.406 0 0 1 9.792 14.062 16.353 16.353 0 0 1-32.641 0A15.406 15.406 0 0 1 43.792 3z" class="prefix__cls-10" data-name="Shape" transform="translate(76.978 6.792)"/>
        <path id="prefix__Shape-19" d="M30.848 3a15.406 15.406 0 0 1 9.792 14.062 15.847 15.847 0 0 1-16.32 15.315A15.847 15.847 0 0 1 8 17.062 15.406 15.406 0 0 1 17.792 3z" class="prefix__cls-10" data-name="Shape" transform="translate(18.112 6.792)"/>
        <rect id="prefix__Rectangle-path-8" width="13" height="26" class="prefix__cls-2" data-name="Rectangle-path" rx="2" transform="translate(120.802)"/>
        <rect id="prefix__Rectangle-path-9" width="13" height="26" class="prefix__cls-2" data-name="Rectangle-path" rx="2" transform="translate(35.802)"/>
    </g>
</svg>
