<svg xmlns="http://www.w3.org/2000/svg" width="80" height="80" viewBox="0 0 80 80">
    <g id="prefix__phone-call">
        <g id="prefix__Group_31" data-name="Group 31">
            <path id="prefix__Path_396" d="M68.28 11.711A40 40 0 1 0 80 39.991a40 40 0 0 0-11.72-28.28zm-7.7 44.008l-.005.005v-.013l-2.027 2.013A10.667 10.667 0 0 1 48.479 60.6a35.443 35.443 0 0 1-10.293-4.613 47.558 47.558 0 0 1-8.12-6.547A47.923 47.923 0 0 1 24 42.084a37.329 37.329 0 0 1-4.56-9.227 10.666 10.666 0 0 1 2.667-10.893l2.373-2.373a1.693 1.693 0 0 1 2.395-.005l.005.005 7.493 7.493a1.693 1.693 0 0 1 .005 2.395l-.005.005-4.4 4.4a3.587 3.587 0 0 0-.373 4.667 51.458 51.458 0 0 0 5.266 6.149 51.143 51.143 0 0 0 6.934 5.825 3.613 3.613 0 0 0 4.613-.4l4.253-4.32a1.693 1.693 0 0 1 2.395-.005l.005.005 7.507 7.52a1.693 1.693 0 0 1 .005 2.394z" data-name="Path 396" style="fill:#fff"/>
        </g>
    </g>
</svg>
