<svg xmlns="http://www.w3.org/2000/svg" id="prefix__plus" width="30" height="30" viewBox="0 0 30 30">
    <path id="prefix__Path_567" d="M15 0a15 15 0 1 0 15 15A15.017 15.017 0 0 0 15 0zm0 0" data-name="Path 567" style="fill:#2196f3"/>
    <path id="prefix__Path_568" d="M137.043 131.73h-5.313v5.313a1.25 1.25 0 1 1-2.5 0v-5.313h-5.313a1.25 1.25 0 0 1 0-2.5h5.313v-5.313a1.25 1.25 0 1 1 2.5 0v5.313h5.313a1.25 1.25 0 0 1 0 2.5zm0 0" data-name="Path 568" transform="translate(-115.48 -115.48)" style="fill:#fafafa"/>
</svg>
