<svg xmlns="http://www.w3.org/2000/svg" width="370" height="372.313" viewBox="0 0 370 372.313">
    <defs>
        <style>
            .prefix__cls-4{fill:#cacbcb}
        </style>
    </defs>
    <g id="prefix__construction" transform="translate(-1.591)">
        <path id="prefix__Path_293" d="M116.687 139.98v13.791a2.8 2.8 0 0 1-2.8 2.8h-7.313a40.69 40.69 0 0 1-4.808 11.63l5.166 5.166a2.808 2.808 0 0 1 0 3.959l-9.751 9.751a2.808 2.808 0 0 1-3.959 0l-5.166-5.166a40.681 40.681 0 0 1-11.63 4.808v7.313a2.8 2.8 0 0 1-2.8 2.8H59.845a2.8 2.8 0 0 1-2.8-2.8v-7.312a40.692 40.692 0 0 1-11.63-4.808l-5.166 5.166a2.808 2.808 0 0 1-3.959 0l-9.751-9.751a2.808 2.808 0 0 1 0-3.959l5.166-5.166a40.681 40.681 0 0 1-4.808-11.63h-7.308a2.8 2.8 0 0 1-2.8-2.8v-13.791a2.8 2.8 0 0 1 2.8-2.8H26.9a40.69 40.69 0 0 1 4.808-11.63l-5.166-5.166a2.808 2.808 0 0 1 0-3.959l9.751-9.751a2.808 2.808 0 0 1 3.959 0l5.166 5.166a40.681 40.681 0 0 1 11.63-4.808v-7.308a2.8 2.8 0 0 1 2.8-2.8h13.788a2.8 2.8 0 0 1 2.8 2.8v7.313a40.69 40.69 0 0 1 11.63 4.808l5.166-5.166a2.808 2.808 0 0 1 3.959 0l9.751 9.751a2.808 2.808 0 0 1 0 3.959l-5.166 5.166a40.681 40.681 0 0 1 4.808 11.63h7.313a2.8 2.8 0 0 1 2.79 2.794zm-28.328 6.9a21.619 21.619 0 1 0-21.619 21.619 21.616 21.616 0 0 0 21.62-21.623z" data-name="Path 293" transform="translate(-4.148 -26.445)" style="fill:#fdcd08"/>
        <path id="prefix__Path_294" d="M385.28 394.221v13.791a2.8 2.8 0 0 1-2.8 2.8h-7.313a40.69 40.69 0 0 1-4.808 11.63l5.166 5.166a2.808 2.808 0 0 1 0 3.959l-9.751 9.751a2.808 2.808 0 0 1-3.959 0l-5.166-5.166a40.683 40.683 0 0 1-11.63 4.808v7.313a2.8 2.8 0 0 1-2.8 2.8h-13.781a2.8 2.8 0 0 1-2.8-2.8v-7.313a40.693 40.693 0 0 1-11.63-4.808l-5.166 5.166a2.808 2.808 0 0 1-3.959 0l-9.751-9.751a2.808 2.808 0 0 1 0-3.959l5.166-5.166a40.683 40.683 0 0 1-4.808-11.63h-7.313a2.8 2.8 0 0 1-2.8-2.8v-13.791a2.8 2.8 0 0 1 2.8-2.8h7.323a40.691 40.691 0 0 1 4.8-11.621l-5.166-5.166a2.808 2.808 0 0 1 0-3.959l9.751-9.751a2.808 2.808 0 0 1 3.959 0l5.166 5.166a40.681 40.681 0 0 1 11.63-4.808v-7.313a2.8 2.8 0 0 1 2.8-2.8h13.792a2.8 2.8 0 0 1 2.8 2.8v7.313a40.7 40.7 0 0 1 11.63 4.808l5.166-5.166a2.808 2.808 0 0 1 3.959 0l9.751 9.751a2.808 2.808 0 0 1 0 3.959l-5.166 5.166a40.685 40.685 0 0 1 4.808 11.63h7.313a2.8 2.8 0 0 1 2.787 2.791zm-28.328 6.9a21.619 21.619 0 1 0-21.619 21.619 21.616 21.616 0 0 0 21.619-21.624z" data-name="Path 294" transform="translate(-77.427 -95.808)" style="fill:#32b678"/>
        <path id="prefix__Path_295" d="M414.258 96.487h-10.385a2.035 2.035 0 0 1-1.983-1.61 94.324 94.324 0 0 0-12.941-31.235 2.029 2.029 0 0 1 .251-2.542l7.35-7.35a9.853 9.853 0 0 0 0-13.933l-12.27-12.264a9.844 9.844 0 0 0-13.925 0l-7.35 7.343a2.031 2.031 0 0 1-2.542.261 94.389 94.389 0 0 0-31.233-12.942 2.026 2.026 0 0 1-1.61-1.983V9.848A9.851 9.851 0 0 0 317.764 0h-17.347a9.85 9.85 0 0 0-9.855 9.847v10.385a2.027 2.027 0 0 1-1.61 1.983 94.451 94.451 0 0 0-31.235 12.942 2.03 2.03 0 0 1-2.542-.261l-7.343-7.343a9.853 9.853 0 0 0-13.933 0l-12.27 12.263a9.853 9.853 0 0 0 0 13.933l7.35 7.35a2.04 2.04 0 0 1 .261 2.542 94.186 94.186 0 0 0-12.949 31.235 2.034 2.034 0 0 1-1.983 1.61h-10.385a9.853 9.853 0 0 0-9.847 9.847v17.355a9.848 9.848 0 0 0 9.847 9.847h10.385a2.033 2.033 0 0 1 1.983 1.618A94.569 94.569 0 0 0 227.749 164l3.377 5.814 28.974 26.543a94.278 94.278 0 0 0 28.85 11.45 2.038 2.038 0 0 1 1.61 1.983v10.385a9.856 9.856 0 0 0 9.855 9.855h17.347a9.856 9.856 0 0 0 9.855-9.855V209.79a2.033 2.033 0 0 1 1.61-1.983 94.388 94.388 0 0 0 31.235-12.942 2.03 2.03 0 0 1 2.542.261l7.35 7.35a9.844 9.844 0 0 0 13.925 0l12.27-12.27a9.853 9.853 0 0 0 0-13.933l-7.35-7.343a2.04 2.04 0 0 1-.254-2.549 94.349 94.349 0 0 0 12.941-31.228 2.033 2.033 0 0 1 1.983-1.618h10.385a9.848 9.848 0 0 0 9.847-9.847v-17.355a9.853 9.853 0 0 0-9.843-9.846zm-105.163 88a69.1 69.1 0 0 1-33.465-8.587l14.693-14.693a49.4 49.4 0 0 0 66.787-61.131 1.165 1.165 0 0 0-1.927-.456l-10.978 10.98-6.305-21.012a1.6 1.6 0 0 0-1.071-1.071l-21-6.305L326.8 71.233a1.166 1.166 0 0 0-.456-1.927 49.4 49.4 0 0 0-61.129 66.794l-15.3 15.312-.007-.007a69.481 69.481 0 1 1 59.191 33.076z" data-name="Path 295" transform="translate(-52.515)" style="fill:#5dcbf3"/>
        <path id="prefix__Path_296" d="M223.115 200.911L96.139 327.887A49.4 49.4 0 0 1 36.322 395.1a1.978 1.978 0 0 1-.837-3.288l29.068-29.075L55.9 342.47l-19.725-8.111L7.1 363.433a1.978 1.978 0 0 1-3.29-.833 49.4 49.4 0 0 1 67.222-59.82L197.4 176.423l15.3-15.312a49.4 49.4 0 0 1 61.131-66.795 1.165 1.165 0 0 1 .456 1.927l-10.976 10.977-19.111 19.107 8.185 19.65 20.2 8.73 19.106-19.1 10.977-10.977a1.166 1.166 0 0 1 1.927.456 49.4 49.4 0 0 1-66.787 61.131z" class="prefix__cls-4" data-name="Path 296" transform="translate(0 -25.01)"/>
        <path id="prefix__Path_297" d="M26.359 323.543a49.4 49.4 0 0 1 54.979-10.22L207.7 186.966l15.3-15.312a49.378 49.378 0 0 1 45.3-69.433l5.978-5.978a1.166 1.166 0 0 0-.456-1.927 49.4 49.4 0 0 0-61.122 66.793l-15.3 15.312L71.033 302.779A49.4 49.4 0 0 0 3.81 362.6a1.979 1.979 0 0 0 3.289.837l4.8-4.8a49.222 49.222 0 0 1 14.46-35.094z" data-name="Path 297" transform="translate(0 -25.009)" style="fill:#bebebd"/>
        <path id="prefix__Path_298" d="M375.34 119.36l-21-6.305-19.11 19.106 8.185 19.106 20.2 9.274 19.107-19.1-6.305-21.011a1.6 1.6 0 0 0-1.077-1.07z" data-name="Path 298" transform="translate(-91.026 -30.844)" style="fill:#a3a4a3"/>
        <path id="prefix__Path_299" d="M371.809 137.145a6.178 6.178 0 1 1-8.737 0 6.187 6.187 0 0 1 8.737 0z" class="prefix__cls-4" data-name="Path 299" transform="translate(-98.129 -36.924)"/>
    </g>
</svg>
