<svg xmlns="http://www.w3.org/2000/svg" width="179.274" height="154.4" viewBox="0 0 179.274 154.4">
    <g>
        <path d="M175.737.5H43.3c-4.544 0-4.551 7.078 0 7.078h128.9v45.15H99.918a9.91 9.91 0 0 0-7.587-6.589 10.922 10.922 0 0 0-11.8 6.589H7.078V7.578h7.7c4.544 0 4.551-7.078 0-7.078H3.538A3.538 3.538 0 0 0 0 4.038v52.228a3.539 3.539 0 0 0 3.538 3.54h77.115l11.582 30.95c-3.094-2.09-7.627-4.375-11.885-3.607a8.788 8.788 0 0 0-6.288 4.717c-3.887 7.205 3.564 13.951 8.018 17.981 5.571 5.043 8.978 11.332 11.586 18.3 2.8 7.479 9.365 10.359 15.158 12.9.709.31 1.417.621 2.116.94a7.287 7.287 0 0 1 3.779 4.05 13.642 13.642 0 0 0 17.558 7.995l23.155-8.665a15.4 15.4 0 0 0 9.041-19.782c-.375-1.09-.079-2.324.431-4.239.615-2.307 1.38-5.178.217-8.306L151.509 75.5c0-.011-.01-.022-.014-.034-2.37-6.335-8.053-7.5-12.329-5.9a11.478 11.478 0 0 0-3.612 2.2c-1-2.674-2.143-5.28-4.7-6.807a8.985 8.985 0 0 0-7.658-.629 11.061 11.061 0 0 0-3.941 2.492 9.781 9.781 0 0 0-6.649-4.24 11.425 11.425 0 0 0-8.316 1.84l-1.725-4.609h73.17a3.539 3.539 0 0 0 3.538-3.538V4.038A3.536 3.536 0 0 0 175.737.5zm-41.148 88.876c1.592 4.256 8.223 1.781 6.628-2.481l-2.009-5.37c-1.332-3.6 3.936-8.146 5.652-3.6l13.613 37.549.012.034c.362.967.077 2.157-.42 4.02-.621 2.328-1.392 5.223-.26 8.439l.023.064a8.322 8.322 0 0 1-4.877 10.711L129.8 147.41a6.627 6.627 0 0 1-8.449-3.849 14.4 14.4 0 0 0-3.634-5.431 20.38 20.38 0 0 0-6.046-3.558c-5.162-2.265-9.621-4.222-11.372-8.9-3-8.022-7.066-15.278-13.467-21.07-2.913-2.638-7.791-7.052-6.538-9.373 1.948-3.614 8.818 1.851 10.535 3.356A45 45 0 0 1 99.3 109.46c2.16 3.574 7.807.84 6.344-3.071l-18.396-49.15c-1.373-3.668 4.594-5.894 5.948-2.275l14.548 38.874c1.593 4.255 8.224 1.781 6.63-2.481l-6.859-18.328c-1.362-3.64 4.987-4.845 6.21-1.574l7.268 19.419c1.592 4.255 8.223 1.781 6.628-2.481l-4.452-11.9c-1.241-3.313 3.493-8.3 5.159-3.846zm0 0" data-name="Path 168" transform="translate(0 -.5)"/>
        <path d="M29.64 27.446a5.635 5.635 0 0 0 2.979 4.945c.953.521 1.957.934 2.919 1.436.7.365 2.084 1.027 1.7 2.048-.3.778-1.515.823-2.2.724-1.089-.159-1.692-.908-2.555-1.48-1.416-.933-2.874.148-3.21 1.651-.327 1.458.777 2.534 1.946 3.19 2.659 1.485 6.64 1.539 9.048-.48a6.023 6.023 0 0 0-.341-9.026 14.839 14.839 0 0 0-3.31-1.845c-.676-.265-1.851-.529-2.108-1.323-.5-1.552 2.2-.978 2.913-.822 1.707.378 3.372 1.265 4.122-1.072.971-3.028-3.113-3.607-5.191-3.607a7.941 7.941 0 0 0-4.674 1.373 4.917 4.917 0 0 0-2.035 4.285zm0 0" data-name="Path 169" transform="translate(0 -.5)"/>
        <path d="M48.084 22.208c-1.369-.877-4.036-.39-4.036 1.4v11.031a5.877 5.877 0 0 0 1.844 4.756 8.269 8.269 0 0 0 9.525 0 5.859 5.859 0 0 0 1.857-4.757V23.607c0-2.284-4.827-2.3-4.827 0v11.032c0 1.18-.57 1.9-1.786 1.9s-1.786-.717-1.786-1.9V23.607a1.606 1.606 0 0 0-.791-1.4zm0 0" data-name="Path 170" transform="translate(0 -.5)"/>
        <path d="M72.431 26.79c0-2.216-.93-4.857-5.359-4.857h-4.947c-1.018 0-2.172.543-2.172 1.7v15.453c0 1.13 1.194 1.673 2.172 1.673h5.358a5.453 5.453 0 0 0 3.9-1.4A5.792 5.792 0 0 0 72.864 35a5.579 5.579 0 0 0-.73-3.385 3.981 3.981 0 0 0-1.179-1.065 4.576 4.576 0 0 0 1.474-3.763zm-5.132 1.51a1.216 1.216 0 0 1-.808.376 15.09 15.09 0 0 1-1.736-.06V26.3h2c.871 0 1.018 1.115.71 1.737a1.3 1.3 0 0 1-.165.263zm.739 6c0 1.049-.141 2.094-1.4 2.094h-1.883v-3.8h1.883c.692 0 1.4.2 1.4 1.706zm0 0" data-name="Path 171" transform="translate(0 -.5)"/>
        <path d="M81.774 36.304a2.946 2.946 0 0 1-2.752 0c-.781-.412-1.342-1.172-2.193-1.465-1.764-.606-3.128 1.786-2.562 3.265a3.929 3.929 0 0 0 1.863 1.86c2.658 1.485 6.639 1.539 9.048-.48a6.023 6.023 0 0 0-.341-9.026 16.869 16.869 0 0 0-3.06-1.743c-.663-.3-2.206-.667-2.383-1.518-.317-1.533 2.328-.908 3.053-.734 1.671.4 3.269 1.232 4.008-1.067.971-3.028-3.113-3.607-5.191-3.607a7.931 7.931 0 0 0-4.674 1.373 4.92 4.92 0 0 0-2.035 4.285 5.635 5.635 0 0 0 2.979 4.949c1.116.61 2.327 1.057 3.413 1.714.644.39 2.009 1.52.826 2.2zm0 0" data-name="Path 172" transform="translate(0 -.5)"/>
        <path d="M95.313 26.3c1.1 0 1.578.5 1.618 1.689.067 1.041.983 1.525 1.931 1.618a3.19 3.19 0 0 0 2.191-.414 2.28 2.28 0 0 0 .7-1.893 4.73 4.73 0 0 0-1.912-3.972 7.569 7.569 0 0 0-4.676-1.4 6.723 6.723 0 0 0-4.535 1.514 5.972 5.972 0 0 0-1.789 4.752v6.439a5.972 5.972 0 0 0 1.789 4.752 7.681 7.681 0 0 0 9.223.037 5.03 5.03 0 0 0 1.9-4.132 2.278 2.278 0 0 0-.7-1.893 3.173 3.173 0 0 0-2.139-.42 1.912 1.912 0 0 0-1.981 1.606c-.2 2.418-3.261 2.666-3.261.051v-6.435c0-1.673.829-1.9 1.64-1.9zm0 0" data-name="Path 173" transform="translate(0 -.5)"/>
        <path d="M116.96 27.665c0-4.738-3.517-5.732-6.468-5.732h-5a1.688 1.688 0 0 0-1.691 1.674v15.456c0 2.312 4.828 2.313 4.828 0v-5.326h.736l3.16 6.175a2.123 2.123 0 0 0 2.908.706c.953-.458 2.219-1.795 1.469-2.927l-2.656-4.846c1.803-.923 2.714-2.667 2.714-5.18zm-4.827.364c0 1.107-.5 1.729-1.641 1.729h-1.859V26.3h1.859c1.144 0 1.642.622 1.642 1.729zm0 0" data-name="Path 174" transform="translate(0 -.5)"/>
        <path d="M121.524 40.759c1.035 0 2.413-.46 2.413-1.7V23.607c0-2.287-4.827-2.288-4.827 0v15.455c0 1.238 1.377 1.7 2.414 1.7zm0 0" data-name="Path 175" transform="translate(0 -.5)"/>
        <path d="M139.165 26.79c0-2.216-.93-4.857-5.359-4.857h-4.947c-1.018 0-2.172.543-2.172 1.7v15.453c0 1.13 1.194 1.673 2.172 1.673h5.358a5.453 5.453 0 0 0 3.9-1.4A5.792 5.792 0 0 0 139.598 35a5.579 5.579 0 0 0-.73-3.385 3.981 3.981 0 0 0-1.179-1.065 4.576 4.576 0 0 0 1.474-3.763zm-5.09 1.547a.652.652 0 0 1-.584.279h-2V26.3h2c.96 0 1.012 1.451.584 2.037zm.695 5.962c0 1.049-.141 2.094-1.4 2.094h-1.883v-3.8h1.888c.692 0 1.4.2 1.4 1.706zm0 0" data-name="Path 176" transform="translate(0 -.5)"/>
        <path d="M152.465 26.3c2.236 0 2.251-4.367 0-4.367h-8.592c-1.018 0-2.173.543-2.173 1.7v15.428c0 1.156 1.156 1.7 2.173 1.7h8.592c2.253 0 2.236-4.366 0-4.366h-5.937v-3.073h3.087c2.22 0 2.2-3.977 0-3.977h-3.088V26.3zm0 0" data-name="Path 177" transform="translate(0 -.5)"/>
        <path d="M114.095 106.747a3.537 3.537 0 1 0 1.915-4.622 3.568 3.568 0 0 0-1.915 4.622zm0 0" data-name="Path 178" transform="translate(0 -.5)"/>
        <path d="M26.009 5.388a3.538 3.538 0 0 0 6.536-2.7 3.538 3.538 0 1 0-6.536 2.7zm0 0" data-name="Path 179" transform="translate(0 -.5)"/>
    </g>
</svg>
